<svg xmlns="http://www.w3.org/2000/svg" viewBox="0 0 3000 3000">
  <path d="M0 667L3000 667M1500 1166L1500 667M0 2333L3000 2333M1500 2333L1500 1833M1500 1833C1439 1833 1387 1819 1334 1788 1280 1758 1242 1720 1212 1667 1181 1613 1167 1561 1167 1500 1167 1439 1181 1387 1212 1334 1242 1280 1280 1242 1333 1212 1387 1181 1439 1167 1500 1167 1561 1167 1613 1181 1666 1212 1720 1242 1758 1280 1788 1333 1819 1387 1833 1439 1833 1500 1833 1561 1819 1613 1788 1666 1758 1720 1720 1758 1667 1788 1613 1819 1561 1833 1500 1833L1500 1833zM1500 1750L1500 1428" fill="none" stroke="#000" stroke-width="40" stroke-linejoin="round"/>
  <path d="M 1584,1426 L 1509,1257 1505,1252 1500,1250 1495,1252 1491,1256 1416,1426 1415,1428 1415,1430 1416,1433 1418,1437 1421,1439 1424,1440 1576,1440 1579,1439 1583,1437 1584,1433 1585,1430 1585,1428 1584,1426 Z"/>
</svg>
