<svg xmlns="http://www.w3.org/2000/svg" viewBox="0 0 3000 3000">
  <path d="M0 667L1166 666M0 2333L3000 2333M1833 666L3000 667M1499 999C1438 999 1386 985 1333 954 1279 924 1241 886 1211 833 1180 779 1166 727 1166 666 1166 605 1180 553 1211 500 1241 446 1279 408 1332 378 1386 347 1438 333 1499 333 1560 333 1612 347 1665 378 1719 408 1757 446 1787 499 1818 553 1832 605 1832 666 1832 727 1818 779 1787 832 1757 886 1719 924 1666 954 1612 985 1560 999 1499 999L1499 999z" fill="none" stroke="#000" stroke-width="40" stroke-linejoin="round"/>
  <path d="M1277 666C1277 666 1335 555 1387 555 1492 555 1505 776 1610 777 1662 776 1721 665 1721 665M1832 417L1999 417M1915 500L1915 333M1833 417L2000 417M1832 417L1999 417M1915 500L1915 333M1833 417L2000 417" fill="none" stroke="#000" stroke-width="40" stroke-linejoin="round"/>
</svg>
