<svg xmlns="http://www.w3.org/2000/svg" viewBox="0 0 3000 3000">
  <path d="M1833 2001c0-11.0557-171-58-170-109 1.0196-51.9996 87-110 166-110 78 0 196 63 166 110-21 33-119 19-166 0-106-43-187-139-166-220 12-50 88-109 167-109 78 0 195 62 165 110-20 33-119 19-166-1-106-42-187-137-167-218 13-52 88-110 168-110 77 0 195 62 165 110-20 33-119 19-165 0-107-43-188-138-168-219 13-51 88-110 167-110 79 0 197 63 167 110-21 33-120 19-167 0-74-31-189-122-162-220 30-36 166-2.2609 166-14m-267 996V997m267 4V667H3000M1833 2001v333h1167M1167.005 2001c0-11.0557 171-58 170-109-1.0196-51.9996-87-110-166-110-78 0-196.00078 63-166 110 21 33 119 19 166 0 106-43 187-139 166-220-12-50-88-109-167-109-78 0-195.00078 62-165 110 20 33 119 19 166-1 106-42 187-137 167-218-13-52-88-110-168-110-77 0-195.00078 62-165 110 20 33 119 19 165 0 107-43 188-138 168-219-13-51-88-110-167-110-79 0-197.00078 63-167 110 21 33 120 19 167 0 74-31 189-122 162-220-30-35.99997-166-2.2609-166-14m267 996V997.00003m-267 3.99997V667H.00427339M1167.005 2001v333H.00427339" fill="none" stroke="#000" stroke-width="40" stroke-linejoin="round"/>
</svg>
