<?xml version="1.0" encoding="UTF-8"?>
<!DOCTYPE svg PUBLIC "-//W3C//DTD SVG 1.1//EN" "http://www.w3.org/Graphics/SVG/1.1/DTD/svg11.dtd"><svg version="1.1" viewBox="0 0 3000 6000" preserveAspectRatio="xMidYMid" fill-rule="evenodd" xmlns="http://www.w3.org/2000/svg" xmlns:xlink="http://www.w3.org/1999/xlink"><g visibility="visible" id="Padrão"><desc>Master slide</desc><g style="stroke:none;fill:none"><rect x="-14" y="-14" width="3030" height="6030"/></g></g><g visibility="visible" id="page1"><desc>Slide</desc><g><desc>Drawing</desc><g><g style="stroke:none;fill:none"><rect x="-14" y="-14" width="3030" height="6030"/></g><g/></g></g><g><desc>Drawing</desc><g><g style="stroke:none;fill:rgb(0,0,0)"><path d="M 0,647 L 3000,647 3000,667 3000,687 0,687 0,667 0,647 Z"/></g><g/></g></g><g><desc>Drawing</desc><g><g style="stroke:none;fill:rgb(0,0,0)"><path d="M 0,2313 L 3000,2313 3000,2333 3000,2353 0,2353 0,2333 0,2313 Z"/></g><g/></g></g><g><desc>Drawing</desc><g><g style="stroke:none;fill:rgb(0,0,0)"><path d="M 674,752 C 627,752 590,715 590,669 590,622 627,585 674,585 720,585 757,622 757,669 757,715 720,752 674,752 Z"/></g><g style="stroke:none;fill:none"><rect x="576" y="571" width="196" height="196"/></g><g/></g></g><g><desc>Drawing</desc><g><g style="stroke:none;fill:rgb(0,0,0)"><path d="M 674,2426 C 627,2426 590,2389 590,2343 590,2296 627,2259 674,2259 720,2259 757,2296 757,2343 757,2389 720,2426 674,2426 Z"/></g><g style="stroke:none;fill:none"><rect x="576" y="2245" width="196" height="196"/></g><g/></g></g><g><desc>Drawing</desc><g><g style="stroke:none;fill:rgb(0,0,0)"><path d="M 684,658 L 2018,3658 2000,3666 1982,3674 648,674 666,666 684,658 Z"/><path d="M 2000,3686 C 1992,3686 1985,3681 1982,3674 L 2000,3666 2000,3686 Z"/><path d="M 2000,3646 L 3000,3646 3000,3666 3000,3686 2000,3686 2000,3666 2000,3646 Z"/></g><g/></g></g><g><desc>Drawing</desc><g><g style="stroke:none;fill:rgb(0,0,0)"><path d="M 684,2325 L 2018,5325 2000,5333 1982,5341 648,2341 666,2333 684,2325 Z"/><path d="M 2000,5353 C 1992,5353 1985,5348 1982,5341 L 2000,5333 2000,5353 Z"/><path d="M 2000,5313 L 3000,5313 3000,5333 3000,5353 2000,5353 2000,5333 2000,5313 Z"/></g><g/></g></g></g></svg>