<?xml version="1.0" encoding="UTF-8"?>
<!DOCTYPE svg PUBLIC "-//W3C//DTD SVG 1.1//EN" "http://www.w3.org/Graphics/SVG/1.1/DTD/svg11.dtd"><svg version="1.1" viewBox="0 0 3000 3000" preserveAspectRatio="xMidYMid" fill-rule="evenodd" xmlns="http://www.w3.org/2000/svg" xmlns:xlink="http://www.w3.org/1999/xlink"><g visibility="visible" id="Padrão"><desc>Master slide</desc><g style="stroke:none;fill:none"><rect x="-14" y="-14" width="3030" height="3030"/></g></g><g visibility="visible" id="page1"><desc>Slide</desc><g><desc>Drawing</desc><g><g style="stroke:none;fill:none"><rect x="-14" y="-14" width="3030" height="3030"/></g><g/></g></g><g><desc>Drawing</desc><g><g style="stroke:none;fill:rgb(0,0,0)"><path d="M 1721,-8 L 2018,658 2000,666 1982,674 1685,8 1703,0 1721,-8 Z"/><path d="M 2000,686 C 1992,686 1985,681 1982,674 L 2000,666 2000,686 Z"/><path d="M 2000,646 L 3000,646 3000,666 3000,686 2000,686 2000,666 2000,646 Z"/></g><g/></g></g><g><desc>Drawing</desc><g><g style="stroke:none;fill:rgb(0,0,0)"><path d="M 983,-8 L 2018,2325 2000,2333 1982,2341 947,8 965,0 983,-8 Z"/><path d="M 2000,2353 C 1992,2353 1985,2348 1982,2341 L 2000,2333 2000,2353 Z"/><path d="M 2000,2313 L 3000,2313 3000,2333 3000,2353 2000,2353 2000,2333 2000,2313 Z"/></g><g/></g></g><g><desc>Drawing</desc><g><g style="stroke:none;fill:none"><rect x="-14" y="-14" width="3030" height="3030"/></g><g/></g></g></g></svg>