<?xml version="1.0" encoding="UTF-8"?>
<!DOCTYPE svg PUBLIC "-//W3C//DTD SVG 1.1//EN" "http://www.w3.org/Graphics/SVG/1.1/DTD/svg11.dtd"><svg version="1.1" viewBox="0 0 3000 3000" preserveAspectRatio="xMidYMid" fill-rule="evenodd" xmlns="http://www.w3.org/2000/svg" xmlns:xlink="http://www.w3.org/1999/xlink"><g visibility="visible" id="Padrão"><desc>Master slide</desc><g style="stroke:none;fill:none"><rect x="-14" y="-14" width="3030" height="3030"/></g></g><g visibility="visible" id="page1"><desc>Slide</desc><g><desc>Drawing</desc><g><g style="stroke:none;fill:rgb(0,0,0)"><path d="M 0,647 L 3000,647 3000,667 3000,687 0,687 0,667 0,647 Z"/></g><g/></g></g><g><desc>Drawing</desc><g><g style="stroke:none;fill:rgb(0,0,0)"><path d="M 0,2313 L 3000,2313 3000,2333 3000,2353 0,2353 0,2333 0,2313 Z"/></g><g/></g></g><g><desc>Drawing</desc><g><g style="stroke:none;fill:rgb(0,0,0)"><path d="M 674,752 C 627,752 590,715 590,669 590,622 627,585 674,585 720,585 757,622 757,669 757,715 720,752 674,752 Z"/></g><g style="stroke:none;fill:none"><rect x="576" y="571" width="196" height="196"/></g><g/></g></g><g><desc>Drawing</desc><g><g style="stroke:none;fill:rgb(0,0,0)"><path d="M 674,2426 C 627,2426 590,2389 590,2343 590,2296 627,2259 674,2259 720,2259 757,2296 757,2343 757,2389 720,2426 674,2426 Z"/></g><g style="stroke:none;fill:none"><rect x="576" y="2245" width="196" height="196"/></g><g/></g></g><g><desc>Drawing</desc><g><g style="stroke:none;fill:rgb(0,0,0)"><path d="M 684,658 L 1721,2992 1703,3000 1685,3008 648,674 666,666 684,658 Z"/></g><g/></g></g><g><desc>Drawing</desc><g><g style="stroke:none;fill:rgb(0,0,0)"><path d="M 684,2325 L 980,2992 962,3000 944,3008 648,2341 666,2333 684,2325 Z"/></g><g/></g></g><g><desc>Drawing</desc><g><g style="stroke:none;fill:none"><rect x="-14" y="-14" width="3030" height="3030"/></g><g/></g></g></g></svg>