<?xml version="1.0" encoding="UTF-8"?>
<!DOCTYPE svg PUBLIC "-//W3C//DTD SVG 1.1//EN" "http://www.w3.org/Graphics/SVG/1.1/DTD/svg11.dtd"><svg version="1.1" viewBox="0 0 3000 3000" preserveAspectRatio="xMidYMid" fill-rule="evenodd" xmlns="http://www.w3.org/2000/svg" xmlns:xlink="http://www.w3.org/1999/xlink"><g visibility="visible" id="Padrão"><desc>Master slide</desc><g style="stroke:none;fill:none"><rect x="-14" y="-14" width="3030" height="3030"/></g></g><g visibility="visible" id="page1"><desc>Slide</desc><g><desc>Drawing</desc><g><g style="stroke:none;fill:none"><rect x="-14" y="-14" width="3030" height="3030"/></g><g/></g></g><g><desc>Drawing</desc><g><g style="stroke:none;fill:rgb(0,0,0)"><path d="M 0,648 L 3000,648 3000,668 3000,688 0,688 0,668 0,648 Z"/></g><g/></g></g><g><desc>Drawing</desc><g><g style="stroke:none;fill:rgb(0,0,0)"><path d="M 0,2313 L 3000,2313 3000,2333 3000,2353 0,2353 0,2333 0,2313 Z"/></g><g/></g></g><g><desc>Drawing</desc><g><g style="stroke:none;fill:rgb(0,0,0)"><path d="M 1480,2333 L 1480,1666 1500,1666 1520,1666 1520,2333 1500,2333 1480,2333 Z"/></g><g/></g></g><g><desc>Drawing</desc><g><g style="stroke:none;fill:rgb(0,0,0)"><path d="M 1480,1333 L 1480,668 1500,668 1520,668 1520,1333 1500,1333 1480,1333 Z"/></g><g/></g></g><g><desc>Drawing</desc><g><g style="stroke:none;fill:rgb(0,0,0)"><path d="M 1000,1304 L 2000,1304 2000,1334 2000,1364 1000,1364 1000,1334 1000,1304 Z"/></g><g/></g></g><g><desc>Drawing</desc><g><g style="stroke:none;fill:rgb(0,0,0)"><path d="M 1000,1637 L 2000,1637 2000,1667 2000,1697 1000,1697 1000,1667 1000,1637 Z"/></g><g/></g></g><g><desc>Drawing</desc><g><text style="font-family:Arial;font-size:300px;font-weight:400;stroke:none;fill:#000000;text-anchor:left;"><tspan id="label" x="1650" y="1100">XXX</tspan></text></g></g></g></svg>