<?xml version="1.0" encoding="UTF-8"?>
<!DOCTYPE svg PUBLIC "-//W3C//DTD SVG 1.1//EN" "http://www.w3.org/Graphics/SVG/1.1/DTD/svg11.dtd"><svg version="1.1" viewBox="0 0 3000 3000" preserveAspectRatio="xMidYMid" fill-rule="evenodd" xmlns="http://www.w3.org/2000/svg" xmlns:xlink="http://www.w3.org/1999/xlink"><g visibility="visible" id="Padrão"><desc>Master slide</desc><g style="stroke:none;fill:none"><rect x="-14" y="-14" width="3030" height="3030"/></g></g><g visibility="visible" id="page1"><desc>Slide</desc><g><desc>Drawing</desc><g><g style="stroke:none;fill:none"><rect x="-14" y="-14" width="3030" height="3030"/></g><g/></g></g><g><desc>Drawing</desc><g><g style="stroke:none;fill:rgb(0,0,0)"><path d="M 0,647 L 1000,647 1000,667 1000,687 0,687 0,667 0,647 Z"/></g><g/></g></g><g><desc>Drawing</desc><g><g style="stroke:none;fill:rgb(0,0,0)"><path d="M 0,2313 L 3000,2313 3000,2333 3000,2353 0,2353 0,2333 0,2313 Z"/></g><g/></g></g><g><desc>Drawing</desc><g><g style="stroke:none;fill:rgb(0,0,0)"><path d="M 2000,647 L 3000,647 3000,667 3000,687 2000,687 2000,667 2000,647 Z"/></g><g/></g></g><g><desc>Drawing</desc><g><g style="stroke:none;fill:rgb(0,0,0)"><path d="M 981,663 C 981,663 981,663 981,663 L 1000,670 1018,677 C 1018,677 1018,677 1018,677 L 999,670 981,663 Z"/><path d="M 981,663 C 981,663 981,663 981,663 L 1000,670 1018,676 C 1018,676 1018,677 1018,677 L 1000,670 981,663 Z"/><path d="M 981,663 C 981,663 981,663 981,662 L 1000,669 1019,676 C 1019,676 1019,676 1018,676 L 1000,670 981,663 Z"/><path d="M 981,662 C 981,662 981,662 981,661 L 1000,668 1019,675 C 1019,675 1019,676 1019,676 L 1000,669 981,662 Z"/><path d="M 981,661 C 982,661 982,660 982,659 L 1001,666 1020,673 C 1019,674 1019,674 1019,675 L 1000,668 981,661 Z"/><path d="M 982,659 C 983,658 983,657 983,656 L 1002,663 1021,670 C 1020,671 1020,672 1020,673 L 1001,666 982,659 Z"/><path d="M 983,656 C 984,654 985,651 987,648 L 1005,655 1024,662 C 1023,665 1022,668 1021,670 L 1002,663 983,656 Z"/><path d="M 987,648 C 988,644 989,641 991,637 L 1009,644 1028,652 C 1026,655 1025,659 1024,662 L 1005,655 987,648 Z"/><path d="M 991,637 C 997,621 1006,599 1017,578 L 1035,587 1053,596 C 1043,616 1034,636 1028,652 L 1009,644 991,637 Z"/><path d="M 1017,578 C 1028,556 1041,534 1055,517 L 1070,529 1086,542 C 1074,557 1063,576 1053,596 L 1035,587 1017,578 Z"/><path d="M 1055,517 C 1062,507 1070,500 1078,494 L 1090,510 1101,526 C 1096,530 1091,536 1086,542 L 1070,529 1055,517 Z"/><path d="M 1078,494 C 1083,491 1087,488 1092,486 L 1099,505 1107,523 C 1105,524 1103,525 1101,526 L 1090,510 1078,494 Z"/><path d="M 1092,486 C 1097,484 1103,483 1108,483 L 1109,503 1109,523 C 1108,523 1108,523 1107,523 L 1099,505 1092,486 Z"/><path d="M 1108,483 C 1109,483 1109,483 1109,483 1109,483 1109,483 1109,483 L 1109,503 1108,483 Z"/><path d="M 1109,483 C 1118,483 1127,485 1136,488 L 1129,507 1121,525 C 1117,524 1113,523 1109,523 L 1109,503 1109,483 Z"/><path d="M 1136,488 C 1144,491 1152,496 1160,502 L 1148,518 1136,534 C 1131,530 1126,527 1121,525 L 1129,507 1136,488 Z"/><path d="M 1160,502 C 1174,513 1188,528 1200,546 L 1183,557 1167,568 C 1158,554 1147,542 1136,534 L 1148,518 1160,502 Z"/><path d="M 1200,546 C 1212,563 1221,583 1228,604 L 1209,610 1190,617 C 1184,599 1176,582 1167,568 L 1183,557 1200,546 Z"/><path d="M 1228,604 C 1235,626 1239,648 1239,670 L 1219,670 1199,670 C 1199,652 1196,634 1190,617 L 1209,610 1228,604 Z"/><path d="M 1239,670 C 1239,670 1239,670 1239,671 L 1219,671 1199,671 C 1199,670 1199,670 1199,670 L 1219,670 1239,670 Z"/><path d="M 1239,671 C 1239,671 1239,671 1239,671 L 1219,671 1239,671 Z"/><path d="M 1239,671 C 1239,690 1235,711 1229,732 L 1210,726 1191,721 C 1196,704 1199,686 1199,671 L 1219,671 1239,671 Z"/><path d="M 1229,732 C 1224,752 1215,773 1206,791 L 1188,782 1170,772 C 1179,757 1186,739 1191,721 L 1210,726 1229,732 Z"/><path d="M 1206,791 C 1196,810 1184,827 1172,839 L 1158,824 1144,810 C 1153,801 1162,787 1170,772 L 1188,782 1206,791 Z"/><path d="M 1172,839 C 1165,845 1158,851 1151,854 L 1141,837 1132,819 C 1136,817 1140,814 1144,810 L 1158,824 1172,839 Z"/><path d="M 1151,854 C 1147,856 1143,858 1138,859 L 1133,840 1128,821 C 1129,820 1131,820 1132,819 L 1141,837 1151,854 Z"/><path d="M 1138,859 C 1134,860 1129,861 1125,861 L 1125,841 1125,821 C 1126,821 1127,821 1128,821 L 1133,840 1138,859 Z"/><path d="M 1125,861 C 1120,861 1116,860 1111,859 L 1117,840 1123,821 C 1124,821 1124,821 1125,821 L 1125,841 1125,861 Z"/><path d="M 1111,859 C 1107,858 1103,856 1099,853 L 1109,836 1120,820 C 1121,820 1122,821 1123,821 L 1117,840 1111,859 Z"/><path d="M 1120,819 C 1120,819 1120,820 1120,820 L 1109,836 1120,819 Z"/><path d="M 1099,853 C 1096,851 1093,849 1090,846 L 1104,832 1119,818 C 1119,819 1120,819 1120,819 L 1109,836 1099,853 Z"/><path d="M 1090,846 C 1088,844 1085,841 1083,838 L 1100,827 1117,816 C 1117,817 1118,818 1119,818 L 1104,832 1090,846 Z"/><path d="M 1083,838 C 1080,832 1077,826 1075,819 L 1094,813 1113,807 C 1114,810 1115,813 1117,816 L 1100,827 1083,838 Z"/><path d="M 1075,819 C 1071,807 1069,792 1069,776 L 1089,776 1109,776 C 1109,787 1110,798 1113,807 L 1094,813 1075,819 Z"/><path d="M 1069,776 C 1069,737 1079,692 1090,663 L 1109,671 1127,678 C 1118,703 1109,742 1109,776 L 1089,776 1069,776 Z"/><path d="M 1090,663 C 1090,663 1090,663 1090,663 L 1109,671 1090,663 Z"/><path d="M 1090,663 C 1101,638 1114,614 1129,593 L 1145,604 1162,615 C 1148,635 1137,656 1127,678 L 1109,671 1090,663 Z"/><path d="M 1129,593 C 1144,571 1161,551 1180,535 L 1193,550 1206,565 C 1190,579 1175,596 1162,615 L 1145,604 1129,593 Z"/><path d="M 1180,535 C 1198,518 1219,505 1239,495 L 1247,514 1256,532 C 1239,540 1222,551 1206,565 L 1193,550 1180,535 Z"/><path d="M 1239,495 C 1250,491 1260,487 1271,484 L 1276,504 1280,523 C 1272,525 1264,528 1256,532 L 1247,514 1239,495 Z"/><path d="M 1271,484 C 1282,482 1293,480 1304,480 L 1304,500 1304,520 C 1296,520 1288,521 1280,523 L 1276,504 1271,484 Z"/><path d="M 1304,480 C 1314,480 1324,481 1334,484 L 1329,503 1325,523 C 1318,521 1311,520 1304,520 L 1304,500 1304,480 Z"/><path d="M 1334,484 C 1334,484 1335,484 1335,484 L 1329,503 1334,484 Z"/><path d="M 1335,484 C 1342,486 1350,489 1358,494 L 1348,511 1339,529 C 1334,526 1329,524 1324,523 L 1329,503 1335,484 Z"/><path d="M 1358,494 C 1365,498 1373,503 1380,509 L 1367,524 1355,540 C 1349,535 1344,532 1339,529 L 1348,511 1358,494 Z"/><path d="M 1380,509 C 1394,520 1407,534 1419,551 L 1402,563 1386,574 C 1376,560 1366,549 1355,540 L 1367,524 1380,509 Z"/><path d="M 1419,551 C 1430,568 1440,587 1447,607 L 1428,613 1409,620 C 1403,603 1395,588 1386,574 L 1402,563 1419,551 Z"/><path d="M 1447,607 C 1454,627 1458,649 1458,670 L 1438,670 1418,670 C 1418,653 1414,636 1409,620 L 1428,613 1447,607 Z"/><path d="M 1458,670 C 1458,670 1458,671 1458,671 L 1438,671 1418,671 C 1418,671 1418,670 1418,670 L 1438,670 1458,670 Z"/><path d="M 1458,671 C 1458,690 1454,711 1449,732 L 1429,727 1410,721 C 1415,704 1418,686 1418,671 L 1438,671 1458,671 Z"/><path d="M 1449,732 C 1443,753 1435,773 1425,791 L 1408,782 1390,773 C 1398,757 1405,739 1410,721 L 1429,727 1449,732 Z"/><path d="M 1425,791 C 1415,810 1404,827 1392,838 L 1378,824 1364,810 C 1373,801 1382,788 1390,773 L 1408,782 1425,791 Z"/><path d="M 1392,838 C 1385,845 1378,850 1371,854 L 1361,836 1352,819 C 1356,817 1360,814 1364,810 L 1378,824 1392,838 Z"/><path d="M 1371,854 C 1367,856 1363,858 1358,859 L 1353,840 1348,820 C 1349,820 1351,819 1352,819 L 1361,836 1371,854 Z"/><path d="M 1358,859 C 1354,860 1349,861 1345,861 L 1345,841 1345,821 C 1346,821 1347,821 1348,820 L 1353,840 1358,859 Z"/><path d="M 1345,861 C 1340,861 1336,860 1331,859 L 1337,840 1343,821 C 1344,821 1344,821 1345,821 L 1345,841 1345,861 Z"/><path d="M 1331,859 C 1327,858 1323,856 1319,853 L 1329,836 1340,819 C 1341,820 1342,820 1343,821 L 1337,840 1331,859 Z"/><path d="M 1340,819 C 1340,819 1340,819 1340,819 L 1329,836 1340,819 Z"/><path d="M 1319,853 C 1316,851 1313,849 1310,846 L 1324,832 1338,818 C 1339,818 1339,819 1340,819 L 1329,836 1319,853 Z"/><path d="M 1310,846 C 1308,844 1305,841 1303,838 L 1320,827 1336,816 C 1337,816 1337,817 1338,818 L 1324,832 1310,846 Z"/><path d="M 1303,838 C 1299,832 1296,826 1294,819 L 1313,813 1332,807 C 1333,810 1335,813 1336,816 L 1320,827 1303,838 Z"/><path d="M 1294,819 C 1290,806 1289,791 1289,775 L 1309,775 1329,775 C 1329,787 1330,798 1332,807 L 1313,813 1294,819 Z"/><path d="M 1289,775 C 1289,736 1299,691 1310,663 L 1329,671 1347,678 C 1337,703 1329,742 1329,775 L 1309,775 1289,775 Z"/><path d="M 1347,678 C 1347,678 1347,678 1347,678 L 1329,671 1347,678 Z"/><path d="M 1310,663 C 1320,638 1333,614 1348,592 L 1364,604 1381,615 C 1368,634 1356,655 1347,678 L 1329,671 1310,663 Z"/><path d="M 1348,592 C 1363,571 1380,551 1398,535 L 1411,549 1425,564 C 1409,579 1394,596 1381,615 L 1364,604 1348,592 Z"/><path d="M 1398,535 C 1417,518 1437,504 1457,495 L 1465,513 1474,531 C 1457,539 1440,550 1425,564 L 1411,549 1398,535 Z"/><path d="M 1457,495 C 1468,490 1478,486 1489,484 L 1494,503 1498,523 C 1490,525 1482,528 1474,531 L 1465,513 1457,495 Z"/><path d="M 1489,484 C 1500,481 1511,480 1522,480 L 1522,500 1522,520 C 1514,520 1506,521 1498,523 L 1494,503 1489,484 Z"/><path d="M 1522,480 C 1532,480 1542,481 1552,484 L 1547,503 1542,522 C 1536,521 1529,520 1522,520 L 1522,500 1522,480 Z"/><path d="M 1552,484 C 1552,484 1552,484 1552,484 L 1547,503 1552,484 Z"/><path d="M 1552,484 C 1560,486 1568,489 1576,493 L 1567,511 1557,528 C 1552,526 1547,524 1542,522 L 1547,503 1552,484 Z"/><path d="M 1576,493 C 1584,497 1591,502 1598,508 L 1586,524 1574,539 C 1568,535 1563,531 1557,528 L 1567,511 1576,493 Z"/><path d="M 1598,508 C 1613,519 1626,533 1638,550 L 1621,562 1605,573 C 1596,560 1585,548 1574,539 L 1586,524 1598,508 Z"/><path d="M 1638,550 C 1649,567 1659,585 1666,605 L 1647,612 1628,618 C 1622,602 1614,587 1605,573 L 1621,562 1638,550 Z"/><path d="M 1666,605 C 1673,626 1677,647 1677,669 L 1657,669 1637,669 C 1637,652 1633,634 1628,618 L 1647,612 1666,605 Z"/><path d="M 1677,669 C 1677,670 1677,670 1677,670 L 1657,670 1637,670 C 1637,670 1637,669 1637,669 L 1657,669 1677,669 Z"/><path d="M 1637,670 C 1637,670 1637,670 1637,670 1637,670 1637,670 1637,670 L 1657,670 1637,670 Z"/><path d="M 1677,670 C 1677,670 1677,670 1677,670 L 1657,670 1637,670 C 1637,670 1637,670 1637,670 L 1657,670 1677,670 Z"/><path d="M 1677,670 C 1677,689 1673,711 1668,732 L 1648,726 1629,721 C 1634,704 1637,686 1637,670 L 1657,670 1677,670 Z"/><path d="M 1668,732 C 1662,752 1654,773 1644,791 L 1627,782 1609,772 C 1617,757 1624,739 1629,721 L 1648,726 1668,732 Z"/><path d="M 1644,791 C 1634,810 1623,826 1611,838 L 1597,824 1583,810 C 1592,800 1601,787 1609,772 L 1627,782 1644,791 Z"/><path d="M 1611,838 C 1604,845 1597,850 1589,854 L 1580,836 1571,819 C 1575,816 1579,813 1583,810 L 1597,824 1611,838 Z"/><path d="M 1589,854 C 1585,856 1581,858 1577,859 L 1572,840 1567,820 C 1568,820 1570,819 1571,819 L 1580,836 1589,854 Z"/><path d="M 1577,859 C 1573,860 1568,861 1563,861 L 1563,841 1563,821 C 1565,821 1566,821 1567,820 L 1572,840 1577,859 Z"/><path d="M 1563,861 C 1559,861 1554,860 1549,859 L 1555,840 1561,820 C 1562,821 1563,821 1563,821 L 1563,841 1563,861 Z"/><path d="M 1549,859 C 1545,857 1541,855 1536,853 L 1547,836 1558,819 C 1559,820 1560,820 1561,820 L 1555,840 1549,859 Z"/><path d="M 1558,819 C 1558,819 1558,819 1558,819 L 1547,836 1558,819 Z"/><path d="M 1537,853 C 1533,851 1531,848 1528,846 L 1542,832 1556,818 C 1557,818 1557,818 1558,819 L 1547,836 1537,853 Z"/><path d="M 1528,846 C 1525,843 1523,840 1521,837 L 1538,826 1555,815 C 1555,816 1556,817 1556,818 L 1542,832 1528,846 Z"/><path d="M 1521,837 C 1518,832 1515,826 1512,818 L 1532,813 1551,807 C 1552,810 1553,813 1555,815 L 1538,826 1521,837 Z"/><path d="M 1512,818 C 1509,806 1507,791 1507,775 L 1527,775 1547,775 C 1547,787 1548,798 1551,807 L 1532,813 1512,818 Z"/><path d="M 1507,775 C 1507,737 1517,691 1528,663 L 1547,670 1565,678 C 1555,702 1547,742 1547,775 L 1527,775 1507,775 Z"/><path d="M 1528,663 C 1528,663 1528,663 1528,663 L 1547,670 1528,663 Z"/><path d="M 1528,663 C 1538,637 1551,613 1566,592 L 1583,603 1599,615 C 1586,634 1574,655 1565,678 L 1547,670 1528,663 Z"/><path d="M 1566,592 C 1582,570 1599,550 1617,534 L 1631,549 1644,564 C 1628,578 1613,596 1599,615 L 1583,603 1566,592 Z"/><path d="M 1617,534 C 1636,517 1656,504 1677,495 L 1685,513 1693,531 C 1676,539 1659,550 1644,564 L 1631,549 1617,534 Z"/><path d="M 1677,495 C 1687,490 1698,486 1709,484 L 1713,503 1718,523 C 1710,525 1701,528 1693,531 L 1685,513 1677,495 Z"/><path d="M 1709,484 C 1720,481 1731,480 1742,480 L 1742,500 1742,520 C 1734,520 1726,521 1718,523 L 1713,503 1709,484 Z"/><path d="M 1742,480 C 1751,480 1761,481 1770,483 L 1766,503 1761,522 C 1755,521 1748,520 1742,520 L 1742,500 1742,480 Z"/><path d="M 1770,483 C 1771,483 1771,483 1771,483 L 1766,503 1770,483 Z"/><path d="M 1771,483 C 1779,485 1787,489 1795,493 L 1785,510 1776,528 C 1771,525 1766,523 1761,522 L 1766,503 1771,483 Z"/><path d="M 1795,493 C 1802,497 1810,502 1817,508 L 1804,523 1792,539 C 1787,535 1781,531 1776,528 L 1785,510 1795,493 Z"/><path d="M 1817,508 C 1831,519 1845,533 1856,550 L 1840,562 1824,573 C 1814,560 1803,548 1792,539 L 1804,523 1817,508 Z"/><path d="M 1856,550 C 1868,567 1878,586 1885,606 L 1866,612 1847,619 C 1841,602 1833,587 1824,573 L 1840,562 1856,550 Z"/><path d="M 1885,606 C 1892,626 1896,648 1896,670 L 1876,670 1856,670 C 1856,652 1853,635 1847,619 L 1866,612 1885,606 Z"/><path d="M 1896,670 C 1896,670 1896,670 1896,671 L 1876,671 1856,671 C 1856,670 1856,670 1856,670 L 1876,670 1896,670 Z"/><path d="M 1896,671 C 1896,671 1896,671 1896,671 L 1876,671 1896,671 Z"/><path d="M 1896,671 C 1896,690 1892,711 1886,732 L 1867,726 1848,721 C 1853,704 1856,686 1856,670 L 1876,671 1896,671 Z"/><path d="M 1886,732 C 1881,752 1872,773 1863,791 L 1845,782 1827,772 C 1836,757 1843,739 1848,721 L 1867,726 1886,732 Z"/><path d="M 1863,791 C 1853,810 1841,827 1829,838 L 1815,824 1801,810 C 1811,801 1820,787 1827,772 L 1845,782 1863,791 Z"/><path d="M 1829,838 C 1822,845 1815,851 1808,854 L 1799,837 1789,819 C 1793,817 1797,814 1801,810 L 1815,824 1829,838 Z"/><path d="M 1808,854 C 1804,856 1800,858 1796,859 L 1790,840 1785,821 C 1786,820 1788,820 1789,819 L 1799,837 1808,854 Z"/><path d="M 1796,859 C 1791,860 1786,861 1782,861 L 1782,841 1782,821 C 1783,821 1784,821 1785,821 L 1790,840 1796,859 Z"/><path d="M 1782,861 C 1777,861 1773,860 1768,859 L 1774,840 1780,821 C 1781,821 1781,821 1782,821 L 1782,841 1782,861 Z"/><path d="M 1768,859 C 1764,858 1760,856 1756,853 L 1766,836 1777,820 C 1778,820 1779,820 1780,821 L 1774,840 1768,859 Z"/><path d="M 1777,819 C 1777,819 1777,819 1777,820 L 1766,836 1777,819 Z"/><path d="M 1756,853 C 1753,851 1750,849 1747,846 L 1761,832 1776,818 C 1776,819 1777,819 1777,819 L 1766,836 1756,853 Z"/><path d="M 1747,846 C 1745,844 1742,841 1740,838 L 1757,827 1774,816 C 1774,817 1775,817 1776,818 L 1761,832 1747,846 Z"/><path d="M 1740,838 C 1737,832 1734,826 1732,819 L 1751,813 1770,807 C 1771,810 1772,813 1774,816 L 1757,827 1740,838 Z"/><path d="M 1732,819 C 1728,806 1726,792 1726,776 L 1746,776 1766,776 C 1766,787 1767,798 1770,807 L 1751,813 1732,819 Z"/><path d="M 1726,776 C 1726,737 1736,692 1747,663 L 1766,671 1785,678 C 1775,703 1766,742 1766,776 L 1746,776 1726,776 Z"/><path d="M 1747,663 C 1747,663 1747,663 1747,663 L 1766,671 1747,663 Z"/><path d="M 1747,663 C 1762,628 1790,583 1825,548 L 1839,562 1853,576 C 1822,608 1797,647 1784,678 L 1766,671 1747,663 Z"/><path d="M 1825,548 C 1843,530 1863,514 1885,503 L 1894,520 1903,538 C 1885,547 1869,561 1853,576 L 1839,562 1825,548 Z"/><path d="M 1885,503 C 1896,497 1907,492 1919,489 L 1925,508 1930,527 C 1921,530 1912,533 1903,538 L 1894,520 1885,503 Z"/><path d="M 1919,489 C 1931,485 1944,484 1956,484 L 1956,504 1956,524 C 1947,524 1939,525 1930,527 L 1925,508 1919,489 Z"/><path d="M 1956,484 C 1968,484 1980,485 1991,488 L 1986,508 1981,527 C 1973,525 1964,524 1956,524 L 1956,504 1956,484 Z"/><path d="M 1991,488 C 1994,489 1997,490 1999,492 L 1986,508 1991,488 Z"/><path d="M 1999,492 C 2004,497 2009,502 2012,509 L 1995,519 1977,528 C 1976,526 1975,524 1973,523 L 1986,508 1999,492 Z"/><path d="M 2012,509 C 2015,515 2018,521 2020,529 L 2000,533 1981,538 C 1980,534 1979,531 1977,528 L 1995,519 2012,509 Z"/><path d="M 2020,529 C 2023,541 2024,556 2024,571 L 2004,571 1984,571 C 1984,559 1983,548 1981,538 L 2000,533 2020,529 Z"/><path d="M 2024,571 C 2024,604 2018,639 2018,657 L 1998,657 1978,657 C 1978,639 1984,604 1984,571 L 2004,571 2024,571 Z"/><path d="M 2018,657 C 2018,658 2018,659 2018,660 L 1998,662 1979,665 C 1978,663 1978,660 1978,657 L 1998,657 2018,657 Z"/><path d="M 2014,660 L 1999,665 1980,670 C 1979,669 1979,667 1979,665 L 1998,662 2014,660 Z"/><path d="M 2005,663 L 2000,666 1982,676 C 1981,674 1980,672 1980,670 L 1999,665 2005,663 Z"/></g><g/></g></g><g><desc>Drawing</desc><g><text style="font-family:Arial;font-size:300px;font-weight:400;stroke:none;fill:#000000;text-anchor:middle;"><tspan id="label" x="1500" y="1250">XXX</tspan></text></g></g></g></svg>