<?xml version="1.0" encoding="UTF-8"?>
<!DOCTYPE svg PUBLIC "-//W3C//DTD SVG 1.1//EN" "http://www.w3.org/Graphics/SVG/1.1/DTD/svg11.dtd"><svg version="1.1" viewBox="0 0 3000 3000" preserveAspectRatio="xMidYMid" fill-rule="evenodd" xmlns="http://www.w3.org/2000/svg" xmlns:xlink="http://www.w3.org/1999/xlink"><g visibility="visible" id="Padrão"><desc>Master slide</desc><g style="stroke:none;fill:none"><rect x="-14" y="-14" width="3030" height="3030"/></g></g><g visibility="visible" id="page1"><desc>Slide</desc><g><desc>Drawing</desc><g><g style="stroke:none;fill:none"><rect x="-14" y="-14" width="3030" height="3030"/></g><g/></g></g><g><desc>Drawing</desc><g><g style="stroke:none;fill:rgb(0,0,0)"><path d="M 0,647 L 3000,647 3000,667 3000,687 0,687 0,667 0,647 Z"/></g><g/></g></g><g><desc>Drawing</desc><g><g style="stroke:none;fill:rgb(0,0,0)"><path d="M 0,2313 L 3000,2313 3000,2333 3000,2353 0,2353 0,2333 0,2313 Z"/></g><g/></g></g><g><desc>Drawing</desc><g><g style="stroke:none;fill:rgb(0,0,0)"><path d="M 1480,2333 L 1480,2000 1500,2000 1520,2000 1520,2333 1500,2333 1480,2333 Z"/></g><g/></g></g><g><desc>Drawing</desc><g><g style="stroke:none;fill:rgb(0,0,0)"><path d="M 1480,1000 L 1480,667 1500,667 1520,667 1520,1000 1500,1000 1480,1000 Z"/></g><g/></g></g><g><desc>Drawing</desc><g><g style="stroke:none;fill:rgb(0,0,0)"><path d="M 1490,1985 C 1490,1985 1490,1985 1490,1985 L 1497,2004 1503,2023 C 1503,2023 1503,2023 1503,2023 L 1497,2004 1490,1985 Z"/><path d="M 1490,1985 C 1490,1985 1490,1985 1491,1985 L 1497,2004 1504,2022 C 1504,2023 1504,2023 1503,2023 L 1497,2004 1490,1985 Z"/><path d="M 1491,1985 C 1491,1985 1491,1985 1491,1985 L 1498,2003 1504,2022 C 1504,2022 1504,2022 1504,2022 L 1497,2004 1491,1985 Z"/><path d="M 1491,1985 C 1491,1984 1492,1984 1492,1984 L 1499,2003 1505,2022 C 1505,2022 1505,2022 1504,2022 L 1498,2003 1491,1985 Z"/><path d="M 1492,1984 C 1492,1984 1493,1984 1494,1983 L 1501,2002 1508,2021 C 1507,2021 1506,2022 1505,2022 L 1499,2003 1492,1984 Z"/><path d="M 1494,1983 C 1495,1983 1496,1983 1497,1982 L 1504,2001 1511,2020 C 1510,2020 1509,2021 1508,2021 L 1501,2002 1494,1983 Z"/><path d="M 1497,1982 C 1499,1982 1502,1981 1505,1979 L 1512,1998 1519,2017 C 1516,2018 1513,2019 1511,2020 L 1504,2001 1497,1982 Z"/><path d="M 1505,1979 C 1508,1978 1512,1977 1515,1975 L 1523,1994 1530,2013 C 1526,2014 1522,2016 1519,2017 L 1512,1998 1505,1979 Z"/><path d="M 1515,1975 C 1530,1969 1551,1961 1571,1951 L 1580,1969 1589,1986 C 1567,1997 1546,2006 1530,2013 L 1523,1994 1515,1975 Z"/><path d="M 1571,1951 C 1590,1941 1610,1930 1624,1918 L 1637,1933 1650,1949 C 1633,1962 1611,1975 1589,1986 L 1580,1969 1571,1951 Z"/><path d="M 1624,1918 C 1631,1913 1636,1908 1640,1903 L 1656,1914 1672,1926 C 1667,1933 1659,1941 1650,1949 L 1637,1933 1624,1918 Z"/><path d="M 1640,1903 C 1641,1901 1642,1899 1643,1897 L 1661,1904 1680,1911 C 1678,1916 1676,1921 1672,1926 L 1656,1914 1640,1903 Z"/><path d="M 1643,1897 C 1643,1896 1643,1895 1643,1894 L 1663,1895 1683,1895 C 1683,1900 1682,1906 1680,1911 L 1661,1904 1643,1897 Z"/><path d="M 1643,1894 C 1643,1894 1643,1894 1643,1894 L 1663,1894 1683,1894 C 1683,1894 1683,1895 1683,1895 L 1663,1895 1643,1894 Z"/><path d="M 1643,1894 C 1643,1890 1642,1886 1641,1882 L 1659,1875 1678,1868 C 1681,1877 1683,1886 1683,1894 L 1663,1894 1643,1894 Z"/><path d="M 1641,1882 C 1639,1877 1636,1872 1632,1868 L 1648,1856 1664,1844 C 1670,1852 1675,1860 1678,1868 L 1659,1875 1641,1882 Z"/><path d="M 1632,1868 C 1624,1857 1612,1846 1599,1837 L 1610,1821 1621,1804 C 1639,1816 1654,1829 1664,1844 L 1648,1856 1632,1868 Z"/><path d="M 1599,1837 C 1584,1828 1568,1820 1550,1814 L 1556,1795 1562,1776 C 1583,1783 1603,1793 1621,1804 L 1610,1821 1599,1837 Z"/><path d="M 1550,1814 C 1533,1809 1515,1805 1497,1805 L 1497,1785 1497,1765 C 1519,1765 1541,1769 1562,1776 L 1556,1795 1550,1814 Z"/><path d="M 1497,1805 C 1497,1805 1497,1805 1496,1805 L 1496,1785 1496,1765 C 1496,1765 1497,1765 1497,1765 L 1497,1785 1497,1805 Z"/><path d="M 1496,1805 C 1496,1805 1496,1805 1496,1805 1496,1805 1496,1805 1496,1805 L 1496,1785 1496,1805 Z"/><path d="M 1496,1805 C 1496,1805 1495,1805 1495,1805 L 1495,1785 1495,1765 C 1495,1765 1496,1765 1496,1765 L 1496,1785 1496,1805 Z"/><path d="M 1495,1805 C 1479,1805 1462,1808 1445,1813 L 1439,1794 1434,1775 C 1455,1769 1476,1765 1495,1765 L 1495,1785 1495,1805 Z"/><path d="M 1445,1813 C 1427,1818 1410,1825 1394,1833 L 1385,1816 1375,1798 C 1393,1788 1414,1780 1434,1775 L 1439,1794 1445,1813 Z"/><path d="M 1394,1833 C 1379,1841 1366,1850 1357,1860 L 1343,1846 1328,1832 C 1340,1820 1356,1808 1375,1798 L 1385,1816 1394,1833 Z"/><path d="M 1357,1860 C 1353,1864 1350,1868 1348,1872 L 1330,1862 1312,1853 C 1316,1846 1321,1839 1328,1832 L 1343,1846 1357,1860 Z"/><path d="M 1348,1872 C 1347,1873 1347,1875 1346,1876 L 1327,1871 1308,1866 C 1309,1862 1310,1857 1312,1853 L 1330,1862 1348,1872 Z"/><path d="M 1346,1876 C 1346,1877 1346,1878 1346,1879 L 1326,1879 1306,1879 C 1306,1875 1306,1870 1308,1866 L 1327,1871 1346,1876 Z"/><path d="M 1346,1879 C 1346,1880 1346,1881 1346,1882 L 1327,1887 1308,1893 C 1306,1888 1306,1884 1306,1879 L 1326,1879 1346,1879 Z"/><path d="M 1346,1882 C 1346,1883 1347,1883 1347,1884 L 1331,1895 1314,1906 C 1311,1902 1309,1897 1308,1893 L 1327,1887 1346,1882 Z"/><path d="M 1314,1906 C 1314,1906 1314,1906 1314,1906 L 1331,1895 1314,1906 Z"/><path d="M 1347,1884 C 1348,1885 1348,1885 1349,1886 L 1335,1900 1321,1915 C 1318,1912 1316,1909 1314,1906 L 1331,1895 1347,1884 Z"/><path d="M 1349,1886 C 1349,1886 1350,1887 1351,1887 L 1340,1904 1329,1921 C 1326,1919 1323,1917 1321,1915 L 1335,1900 1349,1886 Z"/><path d="M 1351,1887 C 1353,1889 1356,1890 1360,1891 L 1354,1910 1348,1929 C 1341,1927 1335,1924 1329,1921 L 1340,1904 1351,1887 Z"/><path d="M 1360,1891 C 1369,1894 1380,1895 1391,1895 L 1391,1915 1391,1935 C 1375,1935 1361,1933 1348,1929 L 1354,1910 1360,1891 Z"/><path d="M 1391,1895 C 1425,1895 1464,1886 1489,1876 L 1497,1895 1504,1913 C 1476,1925 1430,1935 1391,1935 L 1391,1915 1391,1895 Z"/><path d="M 1504,1913 C 1504,1913 1504,1913 1504,1913 L 1497,1895 1504,1913 Z"/><path d="M 1489,1876 C 1512,1867 1533,1856 1552,1842 L 1563,1859 1575,1875 C 1553,1890 1529,1903 1504,1913 L 1497,1895 1489,1876 Z"/><path d="M 1552,1842 C 1571,1829 1588,1814 1602,1798 L 1617,1811 1632,1824 C 1616,1843 1596,1860 1575,1875 L 1563,1859 1552,1842 Z"/><path d="M 1602,1798 C 1616,1782 1627,1766 1635,1748 L 1653,1757 1671,1765 C 1662,1785 1649,1806 1632,1824 L 1617,1811 1602,1798 Z"/><path d="M 1635,1748 C 1639,1740 1641,1732 1643,1724 L 1663,1728 1682,1733 C 1680,1744 1676,1754 1671,1765 L 1653,1757 1635,1748 Z"/><path d="M 1643,1724 C 1645,1716 1646,1708 1646,1700 L 1666,1700 1686,1700 C 1686,1711 1685,1722 1682,1733 L 1663,1728 1643,1724 Z"/><path d="M 1646,1700 C 1646,1693 1645,1686 1644,1679 L 1663,1674 1683,1670 C 1685,1680 1686,1690 1686,1700 L 1666,1700 1646,1700 Z"/><path d="M 1683,1669 C 1683,1669 1683,1670 1683,1670 L 1663,1674 1683,1669 Z"/><path d="M 1644,1680 C 1643,1675 1641,1670 1638,1665 L 1655,1656 1673,1646 C 1677,1654 1680,1662 1683,1669 L 1663,1674 1644,1680 Z"/><path d="M 1638,1665 C 1635,1660 1631,1655 1627,1649 L 1642,1637 1658,1624 C 1664,1631 1669,1639 1673,1646 L 1655,1656 1638,1665 Z"/><path d="M 1627,1649 C 1618,1638 1606,1628 1593,1618 L 1604,1602 1615,1585 C 1632,1597 1647,1610 1658,1624 L 1642,1637 1627,1649 Z"/><path d="M 1593,1618 C 1579,1609 1564,1601 1547,1595 L 1554,1576 1560,1557 C 1580,1564 1599,1574 1615,1585 L 1604,1602 1593,1618 Z"/><path d="M 1547,1595 C 1531,1590 1514,1586 1497,1586 L 1497,1566 1497,1546 C 1519,1546 1540,1550 1560,1557 L 1554,1576 1547,1595 Z"/><path d="M 1497,1586 C 1497,1586 1497,1586 1496,1586 L 1496,1566 1496,1546 C 1497,1546 1497,1546 1497,1546 L 1497,1566 1497,1586 Z"/><path d="M 1496,1586 C 1481,1586 1463,1589 1446,1594 L 1441,1575 1435,1556 C 1456,1550 1477,1546 1496,1546 L 1496,1566 1496,1586 Z"/><path d="M 1446,1594 C 1428,1599 1410,1606 1394,1614 L 1385,1596 1376,1579 C 1394,1569 1415,1561 1435,1556 L 1441,1575 1446,1594 Z"/><path d="M 1394,1614 C 1379,1622 1366,1631 1357,1640 L 1343,1626 1328,1612 C 1340,1600 1357,1589 1376,1579 L 1385,1596 1394,1614 Z"/><path d="M 1357,1640 C 1353,1644 1350,1648 1348,1652 L 1330,1643 1313,1633 C 1316,1626 1322,1619 1328,1612 L 1343,1626 1357,1640 Z"/><path d="M 1348,1652 C 1347,1653 1347,1655 1346,1656 L 1327,1651 1308,1645 C 1309,1641 1310,1637 1313,1633 L 1330,1643 1348,1652 Z"/><path d="M 1346,1656 C 1346,1657 1346,1658 1346,1659 L 1326,1659 1306,1659 C 1306,1654 1306,1650 1308,1645 L 1327,1651 1346,1656 Z"/><path d="M 1346,1659 C 1346,1660 1346,1660 1346,1661 L 1327,1667 1308,1673 C 1306,1668 1306,1664 1306,1659 L 1326,1659 1346,1659 Z"/><path d="M 1346,1661 C 1346,1662 1347,1663 1347,1664 L 1331,1675 1314,1686 C 1311,1682 1309,1677 1308,1673 L 1327,1667 1346,1661 Z"/><path d="M 1347,1664 C 1348,1664 1348,1664 1348,1665 L 1331,1675 1347,1664 Z"/><path d="M 1348,1665 C 1348,1665 1349,1666 1349,1666 L 1335,1680 1320,1694 C 1318,1691 1315,1688 1313,1685 L 1331,1675 1348,1665 Z"/><path d="M 1349,1666 C 1350,1667 1350,1667 1351,1668 L 1340,1685 1329,1701 C 1326,1699 1323,1697 1320,1694 L 1335,1680 1349,1666 Z"/><path d="M 1351,1668 C 1354,1670 1357,1671 1360,1672 L 1354,1691 1348,1710 C 1341,1708 1334,1705 1329,1701 L 1340,1685 1351,1668 Z"/><path d="M 1360,1672 C 1369,1675 1380,1676 1392,1676 L 1392,1696 1392,1716 C 1375,1716 1360,1714 1348,1710 L 1354,1691 1360,1672 Z"/><path d="M 1392,1676 C 1425,1676 1464,1667 1488,1657 L 1496,1675 1504,1694 C 1476,1706 1430,1716 1392,1716 L 1392,1696 1392,1676 Z"/><path d="M 1488,1657 C 1488,1657 1489,1657 1489,1657 L 1496,1675 1488,1657 Z"/><path d="M 1489,1657 C 1511,1648 1532,1636 1552,1623 L 1563,1640 1574,1656 C 1553,1671 1529,1684 1503,1694 L 1496,1675 1489,1657 Z"/><path d="M 1552,1623 C 1571,1610 1588,1595 1602,1579 L 1617,1593 1632,1606 C 1616,1624 1596,1641 1574,1656 L 1563,1640 1552,1623 Z"/><path d="M 1602,1579 C 1616,1564 1627,1547 1635,1530 L 1653,1539 1671,1547 C 1662,1567 1649,1587 1632,1606 L 1617,1593 1602,1579 Z"/><path d="M 1635,1530 C 1639,1522 1642,1514 1644,1506 L 1663,1510 1683,1515 C 1680,1526 1676,1536 1671,1547 L 1653,1539 1635,1530 Z"/><path d="M 1644,1506 C 1645,1498 1646,1490 1646,1482 L 1666,1482 1686,1482 C 1686,1493 1685,1504 1683,1515 L 1663,1510 1644,1506 Z"/><path d="M 1646,1482 C 1646,1475 1646,1468 1644,1461 L 1663,1457 1683,1452 C 1685,1462 1686,1472 1686,1482 L 1666,1482 1646,1482 Z"/><path d="M 1683,1452 C 1683,1452 1683,1452 1683,1452 L 1663,1457 1683,1452 Z"/><path d="M 1644,1462 C 1643,1457 1641,1452 1638,1446 L 1656,1437 1673,1428 C 1677,1436 1681,1444 1683,1452 L 1663,1457 1644,1462 Z"/><path d="M 1638,1446 C 1635,1441 1631,1435 1627,1430 L 1643,1418 1658,1405 C 1664,1412 1669,1420 1673,1428 L 1656,1437 1638,1446 Z"/><path d="M 1627,1430 C 1618,1419 1606,1408 1593,1399 L 1604,1382 1616,1366 C 1633,1377 1647,1391 1658,1405 L 1643,1418 1627,1430 Z"/><path d="M 1593,1399 C 1579,1389 1564,1381 1547,1376 L 1554,1357 1560,1338 C 1580,1345 1599,1354 1616,1366 L 1604,1382 1593,1399 Z"/><path d="M 1547,1376 C 1531,1370 1513,1367 1495,1367 L 1495,1347 1495,1327 C 1518,1327 1540,1331 1560,1338 L 1554,1357 1547,1376 Z"/><path d="M 1495,1327 C 1495,1327 1495,1327 1495,1327 1495,1327 1495,1327 1495,1327 L 1495,1347 1495,1327 Z"/><path d="M 1495,1367 C 1480,1367 1463,1370 1445,1374 L 1440,1355 1435,1336 C 1456,1330 1477,1327 1495,1327 L 1495,1347 1495,1367 Z"/><path d="M 1445,1374 C 1428,1379 1410,1386 1394,1395 L 1385,1377 1375,1359 C 1394,1350 1414,1342 1435,1336 L 1440,1355 1445,1374 Z"/><path d="M 1394,1395 C 1379,1403 1366,1412 1357,1421 L 1342,1407 1328,1393 C 1340,1381 1356,1369 1375,1359 L 1385,1377 1394,1395 Z"/><path d="M 1357,1421 C 1353,1425 1350,1429 1348,1433 L 1330,1424 1312,1415 C 1316,1408 1321,1400 1328,1393 L 1342,1407 1357,1421 Z"/><path d="M 1348,1433 C 1347,1435 1346,1436 1346,1438 L 1326,1432 1307,1427 C 1308,1423 1310,1419 1312,1415 L 1330,1424 1348,1433 Z"/><path d="M 1346,1438 C 1345,1439 1345,1440 1345,1441 L 1325,1441 1305,1441 C 1305,1436 1306,1432 1307,1427 L 1326,1432 1346,1438 Z"/><path d="M 1345,1441 C 1345,1442 1345,1442 1346,1443 L 1326,1449 1307,1454 C 1306,1450 1305,1445 1305,1441 L 1325,1441 1345,1441 Z"/><path d="M 1346,1443 C 1346,1444 1346,1445 1347,1446 L 1330,1457 1313,1467 C 1310,1463 1309,1459 1307,1454 L 1326,1449 1346,1443 Z"/><path d="M 1347,1446 C 1347,1446 1347,1446 1347,1446 L 1330,1457 1347,1446 Z"/><path d="M 1347,1446 C 1347,1447 1348,1447 1348,1447 L 1334,1462 1320,1476 C 1317,1473 1315,1470 1313,1467 L 1330,1457 1347,1446 Z"/><path d="M 1348,1447 C 1349,1448 1349,1449 1350,1449 L 1339,1466 1328,1483 C 1325,1481 1323,1478 1320,1476 L 1334,1462 1348,1447 Z"/><path d="M 1350,1449 C 1353,1451 1356,1452 1359,1453 L 1353,1472 1348,1491 C 1340,1489 1334,1486 1328,1483 L 1339,1466 1350,1449 Z"/><path d="M 1359,1453 C 1368,1456 1379,1457 1391,1457 L 1391,1477 1391,1497 C 1375,1497 1360,1495 1348,1491 L 1353,1472 1359,1453 Z"/><path d="M 1391,1457 C 1425,1457 1464,1448 1488,1438 L 1495,1457 1503,1475 C 1476,1487 1430,1497 1391,1497 L 1391,1477 1391,1457 Z"/><path d="M 1488,1438 C 1488,1438 1488,1438 1488,1438 L 1495,1457 1488,1438 Z"/><path d="M 1488,1438 C 1511,1429 1532,1418 1551,1404 L 1563,1421 1574,1437 C 1552,1452 1528,1465 1503,1475 L 1495,1457 1488,1438 Z"/><path d="M 1551,1404 C 1571,1391 1588,1376 1602,1360 L 1617,1374 1632,1387 C 1616,1405 1596,1422 1574,1437 L 1563,1421 1551,1404 Z"/><path d="M 1602,1360 C 1616,1345 1627,1328 1635,1311 L 1653,1320 1672,1328 C 1662,1348 1649,1368 1632,1387 L 1617,1374 1602,1360 Z"/><path d="M 1635,1311 C 1639,1303 1642,1295 1644,1287 L 1663,1291 1683,1296 C 1680,1307 1676,1317 1672,1328 L 1653,1320 1635,1311 Z"/><path d="M 1644,1287 C 1646,1279 1647,1271 1647,1263 L 1667,1263 1687,1263 C 1687,1274 1685,1285 1683,1296 L 1663,1291 1644,1287 Z"/><path d="M 1647,1263 C 1647,1256 1646,1249 1644,1242 L 1664,1238 1683,1233 C 1685,1243 1687,1253 1687,1263 L 1667,1263 1647,1263 Z"/><path d="M 1683,1232 C 1683,1233 1683,1233 1683,1233 L 1664,1238 1683,1232 Z"/><path d="M 1644,1243 C 1643,1238 1641,1233 1638,1228 L 1656,1218 1673,1209 C 1678,1217 1681,1225 1683,1232 L 1664,1238 1644,1243 Z"/><path d="M 1638,1228 C 1635,1222 1632,1217 1627,1212 L 1643,1199 1658,1187 C 1664,1194 1669,1201 1673,1209 L 1656,1218 1638,1228 Z"/><path d="M 1627,1212 C 1618,1200 1607,1189 1593,1180 L 1605,1164 1616,1147 C 1633,1159 1647,1172 1658,1187 L 1643,1199 1627,1212 Z"/><path d="M 1593,1180 C 1579,1171 1564,1162 1547,1157 L 1554,1138 1560,1119 C 1580,1126 1599,1136 1616,1147 L 1605,1164 1593,1180 Z"/><path d="M 1547,1157 C 1531,1151 1513,1148 1496,1148 L 1496,1128 1496,1108 C 1518,1108 1540,1112 1560,1119 L 1554,1138 1547,1157 Z"/><path d="M 1495,1108 C 1496,1108 1496,1108 1496,1108 1496,1108 1496,1108 1496,1108 L 1496,1128 1495,1108 Z"/><path d="M 1496,1148 C 1480,1148 1463,1151 1445,1156 L 1440,1137 1434,1117 C 1455,1111 1477,1108 1495,1108 L 1496,1128 1496,1148 Z"/><path d="M 1445,1156 C 1428,1161 1410,1168 1394,1176 L 1385,1159 1375,1141 C 1393,1131 1414,1123 1434,1117 L 1440,1137 1445,1156 Z"/><path d="M 1394,1176 C 1379,1184 1366,1193 1357,1203 L 1342,1189 1328,1175 C 1340,1163 1356,1151 1375,1141 L 1385,1159 1394,1176 Z"/><path d="M 1357,1203 C 1353,1207 1350,1211 1348,1215 L 1330,1205 1312,1196 C 1316,1189 1321,1182 1328,1175 L 1342,1189 1357,1203 Z"/><path d="M 1348,1215 C 1347,1216 1346,1218 1346,1219 L 1327,1214 1307,1208 C 1308,1204 1310,1200 1312,1196 L 1330,1205 1348,1215 Z"/><path d="M 1346,1219 C 1346,1220 1345,1221 1345,1222 L 1325,1222 1305,1222 C 1305,1218 1306,1213 1307,1208 L 1327,1214 1346,1219 Z"/><path d="M 1345,1222 C 1345,1223 1346,1223 1346,1224 L 1327,1230 1307,1236 C 1306,1231 1305,1227 1305,1222 L 1325,1222 1345,1222 Z"/><path d="M 1346,1224 C 1346,1225 1346,1226 1347,1227 L 1330,1238 1313,1248 C 1311,1244 1309,1240 1307,1236 L 1327,1230 1346,1224 Z"/><path d="M 1347,1227 C 1347,1227 1347,1227 1347,1227 L 1330,1238 1347,1227 Z"/><path d="M 1347,1227 C 1348,1228 1348,1228 1348,1228 L 1334,1243 1320,1257 C 1317,1254 1315,1251 1313,1248 L 1330,1238 1347,1227 Z"/><path d="M 1348,1228 C 1349,1229 1350,1230 1350,1230 L 1339,1247 1329,1264 C 1325,1261 1323,1259 1320,1257 L 1334,1243 1348,1228 Z"/><path d="M 1350,1230 C 1353,1232 1356,1233 1359,1234 L 1353,1253 1347,1272 C 1340,1270 1334,1267 1329,1264 L 1339,1247 1350,1230 Z"/><path d="M 1359,1234 C 1368,1237 1379,1238 1391,1238 L 1391,1258 1391,1278 C 1374,1278 1360,1276 1347,1272 L 1353,1253 1359,1234 Z"/><path d="M 1391,1238 C 1424,1238 1464,1229 1488,1219 L 1496,1238 1503,1256 C 1475,1268 1429,1278 1391,1278 L 1391,1258 1391,1238 Z"/><path d="M 1503,1256 C 1503,1256 1503,1256 1503,1256 L 1496,1238 1503,1256 Z"/><path d="M 1488,1219 C 1519,1206 1558,1182 1590,1151 L 1604,1165 1618,1179 C 1583,1214 1539,1242 1503,1256 L 1496,1238 1488,1219 Z"/><path d="M 1590,1151 C 1605,1136 1618,1119 1628,1101 L 1645,1111 1663,1120 C 1652,1142 1636,1161 1618,1179 L 1604,1165 1590,1151 Z"/><path d="M 1628,1101 C 1632,1093 1636,1084 1638,1075 L 1658,1081 1677,1086 C 1674,1098 1669,1109 1663,1120 L 1645,1111 1628,1101 Z"/><path d="M 1638,1075 C 1641,1067 1642,1058 1642,1049 L 1662,1049 1682,1049 C 1682,1062 1680,1074 1677,1086 L 1658,1081 1638,1075 Z"/><path d="M 1642,1049 C 1642,1041 1641,1032 1638,1024 L 1658,1018 1677,1012 C 1680,1025 1682,1037 1682,1049 L 1662,1049 1642,1049 Z"/><path d="M 1673,1006 C 1675,1008 1676,1010 1677,1012 L 1658,1018 1673,1006 Z"/><path d="M 1642,1030 C 1641,1029 1639,1028 1637,1026 L 1647,1009 1657,991 C 1663,995 1669,1000 1673,1006 L 1658,1018 1642,1030 Z"/><path d="M 1637,1026 C 1634,1025 1631,1024 1627,1023 L 1632,1003 1637,984 C 1644,986 1651,988 1657,991 L 1647,1009 1637,1026 Z"/><path d="M 1627,1023 C 1618,1020 1606,1020 1595,1020 L 1595,1000 1595,980 C 1610,980 1625,981 1637,984 L 1632,1003 1627,1023 Z"/><path d="M 1595,1020 C 1562,1020 1527,1025 1509,1025 L 1509,1005 1509,985 C 1527,985 1562,980 1595,980 L 1595,1000 1595,1020 Z"/><path d="M 1509,1025 C 1506,1025 1503,1025 1501,1025 L 1504,1005 1506,985 C 1507,985 1508,985 1509,985 L 1509,1005 1509,1025 Z"/><path d="M 1501,1025 C 1499,1025 1498,1024 1496,1024 L 1502,1005 1506,990 1504,1005 1501,1025 Z"/><path d="M 1496,1024 C 1494,1023 1492,1022 1490,1021 L 1500,1004 1503,998 1502,1005 1496,1024 Z"/></g><g/></g></g><g><desc>Drawing</desc><g><text style="font-family:Arial;font-size:300px;font-weight:400;stroke:none;fill:#000000;text-anchor:left;"><tspan id="label" x="1800" y="1600">XXX</tspan></text></g></g></g></svg>