<?xml version="1.0" encoding="UTF-8"?>
<!DOCTYPE svg PUBLIC "-//W3C//DTD SVG 1.1//EN" "http://www.w3.org/Graphics/SVG/1.1/DTD/svg11.dtd"><svg version="1.1" viewBox="0 0 3000 3000" preserveAspectRatio="xMidYMid" fill-rule="evenodd" xmlns="http://www.w3.org/2000/svg" xmlns:xlink="http://www.w3.org/1999/xlink"><g visibility="visible" id="Padrão"><desc>Master slide</desc><g style="stroke:none;fill:none"><rect x="-14" y="-14" width="3030" height="3030"/></g></g><g visibility="visible" id="page1"><desc>Slide</desc><g><desc>Drawing</desc><g><g style="stroke:none;fill:none"><rect x="-14" y="-14" width="3030" height="3030"/></g><g/></g></g><g><desc>Drawing</desc><g><g style="stroke:none;fill:rgb(0,0,0)"><path d="M 0,646 L 3000,646 3000,666 3000,686 0,686 0,666 0,646 Z"/></g><g/></g></g><g><desc>Drawing</desc><g><g style="stroke:none;fill:rgb(0,0,0)"><path d="M 0,2313 L 3000,2313 3000,2333 3000,2353 0,2353 0,2333 0,2313 Z"/></g><g/></g></g><g><desc>Drawing</desc><g><g style="stroke:none;fill:rgb(0,0,0)"><path d="M 1480,2000 L 1480,667 1500,667 1520,667 1520,2000 1500,2000 1480,2000 Z"/></g><g/></g></g><g><desc>Drawing</desc><g><g style="stroke:none;fill:rgb(255,255,255)"><path d="M 1333,2000 L 1666,2000 1500,2333 1333,2000 Z"/></g><g style="stroke:none;fill:rgb(0,0,0)"><path d="M 1315,2009 C 1314,2006 1313,2003 1313,2000 1313,1989 1322,1980 1333,1980 L 1333,2000 1315,2009 Z"/><path d="M 1333,1980 L 1666,1980 1666,2000 1666,2020 1333,2020 1333,2000 1333,1980 Z"/><path d="M 1666,1980 C 1677,1980 1686,1989 1686,2000 1686,2003 1685,2006 1684,2009 L 1666,2000 1666,1980 Z"/><path d="M 1684,2009 L 1518,2342 1500,2333 1482,2324 1648,1991 1666,2000 1684,2009 Z"/><path d="M 1518,2342 C 1515,2348 1508,2353 1500,2353 1492,2353 1485,2348 1482,2342 L 1500,2333 1518,2342 Z"/><path d="M 1482,2342 L 1315,2009 1333,2000 1351,1991 1518,2324 1500,2333 1482,2342 Z"/></g><g/></g></g><g><desc>Drawing</desc><g><text style="font-family:Arial;font-size:300px;font-weight:400;stroke:none;fill:#000000;text-anchor:left;"><tspan id="label" x="1650" y="1600">XXX</tspan></text></g></g></g></svg>