<?xml version="1.0" encoding="UTF-8"?>
<!DOCTYPE svg PUBLIC "-//W3C//DTD SVG 1.1//EN" "http://www.w3.org/Graphics/SVG/1.1/DTD/svg11.dtd"><svg version="1.1" viewBox="0 0 3000 3000" preserveAspectRatio="xMidYMid" fill-rule="evenodd" xmlns="http://www.w3.org/2000/svg" xmlns:xlink="http://www.w3.org/1999/xlink"><g visibility="visible" id="Padrão"><desc>Master slide</desc><g style="stroke:none;fill:none"><rect x="-14" y="-14" width="3030" height="3030"/></g></g><g visibility="visible" id="page1"><desc>Slide</desc><g><desc>Drawing</desc><g><g style="stroke:none;fill:none"><rect x="-14" y="-14" width="3030" height="3030"/></g><g/></g></g><g><desc>Drawing</desc><g><g style="stroke:none;fill:rgb(0,0,0)"><path d="M 0,647 L 1000,647 1000,667 1000,687 0,687 0,667 0,647 Z"/></g><g/></g></g><g><desc>Drawing</desc><g><g style="stroke:none;fill:rgb(0,0,0)"><path d="M 0,2313 L 3000,2313 3000,2333 3000,2353 0,2353 0,2333 0,2313 Z"/></g><g/></g></g><g><desc>Drawing</desc><g><g style="stroke:none;fill:rgb(0,0,0)"><path d="M 2000,647 L 3000,647 3000,667 3000,687 2000,687 2000,667 2000,647 Z"/></g><g/></g></g><g><desc>Drawing</desc><g><g style="stroke:none;fill:rgb(0,0,0)"><path d="M 981,658 L 1064,492 1082,500 1100,509 1017,676 999,667 981,658 Z"/><path d="M 1064,492 C 1067,485 1074,480 1082,480 1090,480 1096,485 1100,491 L 1082,500 1064,492 Z"/><path d="M 1100,491 L 1267,824 1249,833 1231,842 1064,509 1082,500 1100,491 Z"/><path d="M 1267,842 C 1264,849 1257,853 1249,853 1241,853 1235,849 1231,842 L 1249,833 1267,842 Z"/><path d="M 1231,824 L 1398,491 1416,500 1434,509 1267,842 1249,833 1231,824 Z"/><path d="M 1398,491 C 1401,485 1408,480 1416,480 1424,480 1431,485 1434,491 L 1416,500 1398,491 Z"/><path d="M 1434,491 L 1601,825 1583,834 1565,843 1398,509 1416,500 1434,491 Z"/><path d="M 1601,843 C 1597,849 1591,854 1583,854 1575,854 1568,849 1565,843 L 1583,834 1601,843 Z"/><path d="M 1565,825 L 1732,491 1750,500 1768,509 1601,843 1583,834 1565,825 Z"/><path d="M 1732,491 C 1735,485 1742,480 1750,480 1758,480 1765,485 1768,491 L 1750,500 1732,491 Z"/><path d="M 1768,491 L 1935,825 1917,834 1899,843 1732,509 1750,500 1768,491 Z"/><path d="M 1935,843 C 1931,849 1925,854 1917,854 1909,854 1902,849 1899,843 L 1917,834 1935,843 Z"/><path d="M 1899,825 L 1982,658 2000,667 2018,676 1935,843 1917,834 1899,825 Z"/></g><g/></g></g><g><desc>Drawing</desc><g><text style="font-family:Arial;font-size:300px;font-weight:400;stroke:none;fill:#000000;text-anchor:middle;"><tspan id="label" x="1500" y="1250">XXX</tspan></text></g></g></g></svg>