<?xml version="1.0" encoding="UTF-8"?>
<!DOCTYPE svg PUBLIC "-//W3C//DTD SVG 1.1//EN" "http://www.w3.org/Graphics/SVG/1.1/DTD/svg11.dtd"><svg version="1.1" viewBox="0 0 3000 3000" preserveAspectRatio="xMidYMid" fill-rule="evenodd" xmlns="http://www.w3.org/2000/svg" xmlns:xlink="http://www.w3.org/1999/xlink"><g visibility="visible" id="Padrão"><desc>Master slide</desc><g style="stroke:none;fill:none"><rect x="-14" y="-14" width="3030" height="3030"/></g></g><g visibility="visible" id="page1"><desc>Slide</desc><g><desc>Drawing</desc><g><g style="stroke:none;fill:none"><rect x="-14" y="-14" width="3030" height="3030"/></g><g/></g></g><g><desc>Drawing</desc><g><g style="stroke:none;fill:rgb(0,0,0)"><path d="M 0,646 L 3000,646 3000,666 3000,686 0,686 0,666 0,646 Z"/></g><g/></g></g><g><desc>Drawing</desc><g><g style="stroke:none;fill:rgb(0,0,0)"><path d="M 1480,999 L 1480,666 1500,666 1520,666 1520,999 1500,999 1480,999 Z"/></g><g/></g></g><g><desc>Drawing</desc><g><g style="stroke:none;fill:rgb(0,0,0)"><path d="M 0,2312 L 3000,2312 3000,2332 3000,2352 0,2352 0,2332 0,2312 Z"/></g><g/></g></g><g><desc>Drawing</desc><g><g style="stroke:none;fill:rgb(0,0,0)"><path d="M 1480,2332 L 1480,1999 1500,1999 1520,1999 1520,2332 1500,2332 1480,2332 Z"/></g><g/></g></g><g><desc>Drawing</desc><g><g style="stroke:none;fill:rgb(0,0,0)"><path d="M 1508,981 L 1674,1064 1666,1082 1657,1100 1490,1017 1499,999 1508,981 Z"/><path d="M 1674,1064 C 1681,1067 1686,1074 1686,1082 1686,1090 1681,1096 1675,1100 L 1666,1082 1674,1064 Z"/><path d="M 1675,1100 L 1342,1267 1333,1249 1324,1231 1657,1064 1666,1082 1675,1100 Z"/><path d="M 1324,1267 C 1317,1264 1313,1257 1313,1249 1313,1241 1317,1235 1324,1231 L 1333,1249 1324,1267 Z"/><path d="M 1342,1231 L 1675,1398 1666,1416 1657,1434 1324,1267 1333,1249 1342,1231 Z"/><path d="M 1675,1398 C 1681,1401 1686,1408 1686,1416 1686,1424 1681,1431 1675,1434 L 1666,1416 1675,1398 Z"/><path d="M 1675,1434 L 1341,1601 1332,1583 1323,1565 1657,1398 1666,1416 1675,1434 Z"/><path d="M 1323,1601 C 1317,1597 1312,1591 1312,1583 1312,1575 1317,1568 1323,1565 L 1332,1583 1323,1601 Z"/><path d="M 1341,1565 L 1675,1732 1666,1750 1657,1768 1323,1601 1332,1583 1341,1565 Z"/><path d="M 1675,1732 C 1681,1735 1686,1742 1686,1750 1686,1758 1681,1765 1675,1768 L 1666,1750 1675,1732 Z"/><path d="M 1675,1768 L 1341,1935 1332,1917 1323,1899 1657,1732 1666,1750 1675,1768 Z"/><path d="M 1323,1935 C 1317,1931 1312,1925 1312,1917 1312,1909 1317,1902 1323,1899 L 1332,1917 1323,1935 Z"/><path d="M 1341,1899 L 1507,1982 1498,2000 1489,2018 1323,1935 1332,1917 1341,1899 Z"/></g><g/></g></g><g><desc>Drawing</desc><g><text style="font-family:Arial;font-size:300px;font-weight:400;stroke:none;fill:#000000;text-anchor:left;"><tspan id="label" x="1800" y="1600">XXX</tspan></text></g></g></g></svg>