<?xml version="1.0" encoding="UTF-8"?>
<!DOCTYPE svg PUBLIC "-//W3C//DTD SVG 1.1//EN" "http://www.w3.org/Graphics/SVG/1.1/DTD/svg11.dtd"><svg version="1.1" viewBox="0 0 3000 3000" preserveAspectRatio="xMidYMid" fill-rule="evenodd" xmlns="http://www.w3.org/2000/svg" xmlns:xlink="http://www.w3.org/1999/xlink"><g visibility="visible" id="Padrão"><desc>Master slide</desc><g style="stroke:none;fill:none"><rect x="-14" y="-14" width="3030" height="3030"/></g></g><g visibility="visible" id="page1"><desc>Slide</desc><g><desc>Drawing</desc><g><g style="stroke:none;fill:none"><rect x="-14" y="-14" width="3030" height="3030"/></g><g/></g></g><g><desc>Drawing</desc><g><g style="stroke:none;fill:rgb(0,0,0)"><path d="M 1000,1063 L 1167,1063 1167,1083 1167,1103 1000,1103 1000,1083 1000,1063 Z"/></g><g/></g></g><g><desc>Drawing</desc><g><g style="stroke:none;fill:rgb(0,0,0)"><path d="M 1063,1166 L 1063,999 1083,999 1103,999 1103,1166 1083,1166 1063,1166 Z"/></g><g/></g></g><g><desc>Drawing</desc><g><g style="stroke:none;fill:rgb(0,0,0)"><path d="M 1001,1063 L 1168,1063 1168,1083 1168,1103 1001,1103 1001,1083 1001,1063 Z"/></g><g/></g></g><g><desc>Group</desc><g><desc>Drawing</desc><g><g style="stroke:none;fill:rgb(255,255,255)"><path d="M 1500,1832 C 1316,1832 1167,1683 1167,1499 1167,1315 1316,1166 1500,1166 1684,1166 1833,1315 1833,1499 1833,1683 1684,1832 1500,1832 Z"/></g><g style="stroke:none;fill:rgb(0,0,0)"><path d="M 1500,1852 C 1451,1852 1405,1842 1363,1824 L 1370,1806 1378,1787 C 1416,1803 1457,1812 1500,1812 L 1500,1832 1500,1852 Z"/><path d="M 1363,1824 C 1320,1806 1282,1781 1250,1749 L 1265,1734 1279,1720 C 1307,1749 1341,1772 1378,1787 L 1370,1806 1363,1824 Z"/><path d="M 1250,1749 C 1218,1717 1193,1679 1175,1636 L 1193,1629 1212,1621 C 1227,1658 1250,1692 1279,1720 L 1265,1734 1250,1749 Z"/><path d="M 1175,1636 C 1157,1594 1147,1548 1147,1499 L 1167,1499 1187,1499 C 1187,1542 1196,1583 1212,1621 L 1193,1629 1175,1636 Z"/><path d="M 1147,1499 C 1147,1450 1157,1404 1175,1362 L 1193,1369 1212,1377 C 1196,1415 1187,1456 1187,1499 L 1167,1499 1147,1499 Z"/><path d="M 1175,1362 C 1193,1319 1218,1281 1250,1249 L 1265,1264 1279,1278 C 1250,1306 1227,1340 1212,1377 L 1193,1369 1175,1362 Z"/><path d="M 1250,1249 C 1282,1217 1320,1192 1363,1174 L 1370,1192 1378,1211 C 1341,1226 1307,1249 1279,1278 L 1265,1264 1250,1249 Z"/><path d="M 1363,1174 C 1405,1156 1451,1146 1500,1146 L 1500,1166 1500,1186 C 1457,1186 1416,1195 1378,1211 L 1370,1192 1363,1174 Z"/><path d="M 1500,1146 C 1549,1146 1595,1156 1637,1174 L 1630,1192 1622,1211 C 1584,1195 1543,1186 1500,1186 L 1500,1166 1500,1146 Z"/><path d="M 1637,1174 C 1680,1192 1718,1217 1750,1249 L 1735,1264 1721,1278 C 1693,1249 1659,1226 1622,1211 L 1630,1192 1637,1174 Z"/><path d="M 1750,1249 C 1782,1281 1807,1319 1825,1362 L 1807,1369 1788,1377 C 1773,1340 1750,1306 1721,1278 L 1735,1264 1750,1249 Z"/><path d="M 1825,1362 C 1843,1404 1853,1450 1853,1499 L 1833,1499 1813,1499 C 1813,1456 1804,1415 1788,1377 L 1807,1369 1825,1362 Z"/><path d="M 1853,1499 C 1853,1548 1843,1594 1825,1636 L 1807,1629 1788,1621 C 1804,1583 1813,1542 1813,1499 L 1833,1499 1853,1499 Z"/><path d="M 1825,1636 C 1807,1679 1782,1717 1750,1749 L 1735,1734 1721,1720 C 1750,1692 1773,1658 1788,1621 L 1807,1629 1825,1636 Z"/><path d="M 1750,1749 C 1718,1781 1680,1806 1637,1824 L 1630,1806 1622,1787 C 1659,1772 1693,1749 1721,1720 L 1735,1734 1750,1749 Z"/><path d="M 1637,1824 C 1595,1842 1549,1852 1500,1852 L 1500,1832 1500,1812 C 1543,1812 1584,1803 1622,1787 L 1630,1806 1637,1824 Z"/></g><g/></g></g><g><desc>Drawing</desc><g><g style="stroke:none;fill:rgb(0,0,0)"><path d="M 1260,1490 C 1260,1490 1260,1490 1260,1490 L 1278,1499 1295,1508 C 1295,1508 1295,1508 1295,1508 L 1278,1499 1260,1490 Z"/><path d="M 1260,1490 C 1260,1490 1260,1489 1260,1489 L 1278,1499 1295,1508 C 1295,1508 1295,1508 1295,1508 L 1278,1499 1260,1490 Z"/><path d="M 1260,1489 C 1260,1489 1260,1489 1260,1489 L 1278,1498 1296,1508 C 1296,1508 1296,1508 1295,1508 L 1278,1499 1260,1489 Z"/><path d="M 1260,1489 C 1261,1489 1261,1489 1261,1488 L 1278,1498 1296,1507 C 1296,1508 1296,1508 1296,1508 L 1278,1498 1260,1489 Z"/><path d="M 1261,1488 C 1261,1488 1261,1487 1262,1487 L 1279,1496 1297,1506 C 1296,1507 1296,1507 1296,1507 L 1278,1498 1261,1488 Z"/><path d="M 1262,1487 C 1262,1486 1262,1485 1263,1485 L 1280,1494 1298,1504 C 1297,1505 1297,1505 1297,1506 L 1279,1496 1262,1487 Z"/><path d="M 1263,1485 C 1264,1483 1265,1481 1266,1479 L 1283,1489 1301,1499 C 1300,1501 1299,1503 1298,1504 L 1280,1494 1263,1485 Z"/><path d="M 1266,1479 C 1267,1477 1269,1474 1270,1471 L 1288,1482 1305,1492 C 1303,1495 1302,1497 1301,1499 L 1283,1489 1266,1479 Z"/><path d="M 1270,1471 C 1277,1460 1286,1446 1298,1431 L 1313,1444 1329,1456 C 1319,1469 1311,1482 1305,1492 L 1288,1482 1270,1471 Z"/><path d="M 1298,1431 C 1309,1416 1322,1401 1336,1390 L 1349,1405 1362,1421 C 1350,1430 1339,1443 1329,1456 L 1313,1444 1298,1431 Z"/><path d="M 1336,1390 C 1344,1383 1352,1378 1360,1375 L 1369,1393 1377,1411 C 1372,1413 1367,1417 1362,1421 L 1349,1405 1336,1390 Z"/><path d="M 1360,1375 C 1365,1372 1369,1371 1374,1370 L 1379,1389 1383,1409 C 1381,1409 1379,1410 1377,1411 L 1369,1393 1360,1375 Z"/><path d="M 1374,1370 C 1379,1369 1384,1368 1388,1368 L 1388,1388 1389,1408 C 1387,1408 1385,1408 1383,1409 L 1379,1389 1374,1370 Z"/><path d="M 1388,1368 C 1389,1368 1389,1368 1389,1368 L 1389,1388 1389,1408 C 1389,1408 1389,1408 1389,1408 L 1388,1388 1388,1368 Z"/><path d="M 1389,1368 C 1397,1368 1405,1369 1412,1371 L 1407,1390 1402,1410 C 1398,1409 1393,1408 1389,1408 L 1389,1388 1389,1368 Z"/><path d="M 1412,1371 C 1420,1373 1427,1376 1434,1380 L 1424,1397 1414,1415 C 1410,1413 1406,1411 1402,1410 L 1407,1390 1412,1371 Z"/><path d="M 1434,1380 C 1446,1387 1458,1397 1468,1410 L 1453,1422 1437,1435 C 1430,1427 1423,1420 1414,1415 L 1424,1397 1434,1380 Z"/><path d="M 1468,1410 C 1486,1431 1502,1460 1517,1489 L 1499,1499 1482,1508 C 1468,1482 1454,1455 1437,1435 L 1453,1422 1468,1410 Z"/><path d="M 1517,1489 C 1531,1516 1545,1542 1562,1562 L 1546,1575 1531,1588 C 1513,1566 1497,1537 1482,1508 L 1499,1499 1517,1489 Z"/><path d="M 1562,1562 C 1569,1570 1577,1578 1585,1583 L 1575,1600 1565,1617 C 1553,1610 1542,1600 1531,1588 L 1546,1575 1562,1562 Z"/><path d="M 1585,1583 C 1589,1585 1593,1587 1598,1588 L 1592,1607 1587,1626 C 1579,1624 1572,1621 1565,1617 L 1575,1600 1585,1583 Z"/><path d="M 1598,1588 C 1602,1589 1606,1590 1611,1590 L 1611,1610 1611,1630 C 1602,1630 1594,1628 1587,1626 L 1592,1607 1598,1588 Z"/><path d="M 1611,1630 C 1611,1630 1611,1630 1611,1630 1611,1630 1611,1630 1611,1630 L 1611,1610 1611,1630 Z"/><path d="M 1611,1590 C 1613,1590 1614,1589 1616,1589 L 1621,1608 1626,1628 C 1621,1629 1616,1630 1611,1630 L 1611,1610 1611,1590 Z"/><path d="M 1616,1589 C 1618,1588 1620,1588 1622,1587 L 1631,1605 1639,1623 C 1635,1625 1630,1627 1626,1628 L 1621,1608 1616,1589 Z"/><path d="M 1622,1587 C 1627,1584 1633,1581 1638,1577 L 1650,1592 1663,1608 C 1655,1614 1647,1619 1639,1623 L 1631,1605 1622,1587 Z"/><path d="M 1638,1577 C 1649,1567 1660,1554 1670,1542 L 1686,1554 1702,1566 C 1690,1581 1677,1596 1663,1608 L 1650,1592 1638,1577 Z"/><path d="M 1670,1542 C 1680,1529 1689,1515 1695,1505 L 1712,1516 1729,1526 C 1722,1537 1713,1552 1702,1566 L 1686,1554 1670,1542 Z"/><path d="M 1695,1505 C 1696,1503 1697,1501 1699,1499 L 1716,1509 1733,1519 C 1732,1521 1731,1523 1729,1526 L 1712,1516 1695,1505 Z"/><path d="M 1699,1499 C 1700,1497 1701,1495 1702,1493 L 1719,1503 1737,1513 C 1736,1515 1735,1516 1733,1519 L 1716,1509 1699,1499 Z"/><path d="M 1702,1493 C 1702,1493 1702,1492 1703,1491 L 1720,1501 1738,1511 C 1737,1511 1737,1512 1737,1513 L 1719,1503 1702,1493 Z"/><path d="M 1703,1491 C 1703,1491 1703,1490 1703,1490 L 1721,1500 1739,1509 C 1738,1510 1738,1510 1738,1511 L 1720,1501 1703,1491 Z"/><path d="M 1703,1490 C 1704,1490 1704,1490 1704,1490 L 1721,1499 1739,1509 C 1739,1509 1739,1509 1739,1509 L 1721,1500 1703,1490 Z"/><path d="M 1704,1490 C 1704,1489 1704,1489 1704,1489 L 1722,1499 1739,1508 C 1739,1508 1739,1508 1739,1509 L 1721,1499 1704,1490 Z"/><path d="M 1704,1489 C 1704,1489 1704,1489 1704,1489 L 1722,1498 1739,1508 C 1739,1508 1739,1508 1739,1508 L 1722,1499 1704,1489 Z"/><path d="M 1704,1489 C 1704,1489 1704,1489 1704,1489 L 1722,1498 1739,1508 C 1739,1508 1739,1508 1739,1508 L 1722,1498 1704,1489 Z"/></g><g/></g></g></g><g><desc>Drawing</desc><g><g style="stroke:none;fill:rgb(0,0,0)"><path d="M 1520,1833 L 1520,2333 1500,2333 1480,2333 1480,1833 1500,1833 1520,1833 Z"/><path d="M 1500,2353 C 1489,2353 1480,2344 1480,2333 L 1500,2333 1500,2353 Z"/><path d="M 1500,2313 L 3000,2313 3000,2333 3000,2353 1500,2353 1500,2333 1500,2313 Z"/></g><g/></g></g><g><desc>Drawing</desc><g><g style="stroke:none;fill:rgb(0,0,0)"><path d="M 1480,1166 L 1480,666 1500,666 1520,666 1520,1166 1500,1166 1480,1166 Z"/><path d="M 1480,666 C 1480,655 1489,646 1500,646 L 1500,666 1480,666 Z"/><path d="M 1500,646 L 3000,646 3000,666 3000,686 1500,686 1500,666 1500,646 Z"/></g><g/></g></g><g><desc>Drawing</desc><g><text style="font-family:Arial;font-size:300px;font-weight:400;stroke:none;fill:#000000;text-anchor:left;"><tspan id="label" x="2000" y="1400">XXX</tspan></text></g></g></g></svg>