<?xml version="1.0" encoding="UTF-8"?>
<!DOCTYPE svg PUBLIC "-//W3C//DTD SVG 1.1//EN" "http://www.w3.org/Graphics/SVG/1.1/DTD/svg11.dtd"><svg version="1.1" viewBox="0 0 3000 3000" preserveAspectRatio="xMidYMid" fill-rule="evenodd" xmlns="http://www.w3.org/2000/svg" xmlns:xlink="http://www.w3.org/1999/xlink"><g visibility="visible" id="Padrão"><desc>Master slide</desc><g style="stroke:none;fill:none"><rect x="-14" y="-14" width="3030" height="3030"/></g></g><g visibility="visible" id="page1"><desc>Slide</desc><g><desc>Drawing</desc><g><g style="stroke:none;fill:none"><rect x="-14" y="-14" width="3030" height="3030"/></g><g/></g></g><g><desc>Drawing</desc><g><g style="stroke:none;fill:rgb(0,0,0)"><path d="M 1150,1981 C 1150,1981 1150,1981 1150,1981 L 1157,2000 1163,2019 C 1163,2019 1163,2019 1163,2019 L 1157,2000 1150,1981 Z"/><path d="M 1150,1981 C 1150,1981 1150,1981 1151,1981 L 1157,2000 1164,2018 C 1164,2019 1164,2019 1163,2019 L 1157,2000 1150,1981 Z"/><path d="M 1151,1981 C 1151,1981 1151,1981 1151,1981 L 1158,1999 1164,2018 C 1164,2018 1164,2018 1164,2018 L 1157,2000 1151,1981 Z"/><path d="M 1151,1981 C 1151,1980 1152,1980 1152,1980 L 1159,1999 1165,2018 C 1165,2018 1165,2018 1164,2018 L 1158,1999 1151,1981 Z"/><path d="M 1152,1980 C 1152,1980 1153,1980 1154,1979 L 1161,1998 1168,2017 C 1167,2017 1166,2018 1165,2018 L 1159,1999 1152,1980 Z"/><path d="M 1154,1979 C 1155,1979 1156,1979 1157,1978 L 1164,1997 1171,2016 C 1170,2016 1169,2017 1168,2017 L 1161,1998 1154,1979 Z"/><path d="M 1157,1978 C 1159,1978 1162,1977 1165,1975 L 1172,1994 1179,2013 C 1176,2014 1173,2015 1171,2016 L 1164,1997 1157,1978 Z"/><path d="M 1165,1975 C 1168,1974 1172,1973 1175,1971 L 1183,1990 1190,2009 C 1186,2010 1182,2012 1179,2013 L 1172,1994 1165,1975 Z"/><path d="M 1175,1971 C 1190,1965 1211,1957 1231,1947 L 1240,1965 1249,1982 C 1227,1993 1206,2002 1190,2009 L 1183,1990 1175,1971 Z"/><path d="M 1231,1947 C 1250,1937 1270,1926 1284,1914 L 1297,1929 1310,1945 C 1293,1958 1271,1971 1249,1982 L 1240,1965 1231,1947 Z"/><path d="M 1284,1914 C 1291,1909 1296,1904 1300,1899 L 1316,1910 1332,1922 C 1327,1929 1319,1937 1310,1945 L 1297,1929 1284,1914 Z"/><path d="M 1300,1899 C 1301,1897 1302,1895 1303,1893 L 1321,1900 1340,1907 C 1338,1912 1336,1917 1332,1922 L 1316,1910 1300,1899 Z"/><path d="M 1303,1893 C 1303,1892 1303,1891 1303,1890 L 1323,1891 1343,1891 C 1343,1896 1342,1902 1340,1907 L 1321,1900 1303,1893 Z"/><path d="M 1303,1890 C 1303,1890 1303,1890 1303,1890 L 1323,1890 1343,1890 C 1343,1890 1343,1891 1343,1891 L 1323,1891 1303,1890 Z"/><path d="M 1303,1890 C 1303,1886 1302,1882 1301,1878 L 1319,1871 1338,1864 C 1341,1873 1343,1882 1343,1890 L 1323,1890 1303,1890 Z"/><path d="M 1301,1878 C 1299,1873 1296,1868 1292,1864 L 1308,1852 1324,1840 C 1330,1848 1335,1856 1338,1864 L 1319,1871 1301,1878 Z"/><path d="M 1292,1864 C 1284,1853 1272,1842 1259,1833 L 1270,1817 1281,1800 C 1299,1812 1314,1825 1324,1840 L 1308,1852 1292,1864 Z"/><path d="M 1259,1833 C 1244,1824 1228,1816 1210,1810 L 1216,1791 1222,1772 C 1243,1779 1263,1789 1281,1800 L 1270,1817 1259,1833 Z"/><path d="M 1210,1810 C 1193,1805 1175,1801 1157,1801 L 1157,1781 1157,1761 C 1179,1761 1201,1765 1222,1772 L 1216,1791 1210,1810 Z"/><path d="M 1157,1801 C 1157,1801 1157,1801 1156,1801 L 1156,1781 1156,1761 C 1156,1761 1157,1761 1157,1761 L 1157,1781 1157,1801 Z"/><path d="M 1156,1801 C 1156,1801 1156,1801 1156,1801 1156,1801 1156,1801 1156,1801 L 1156,1781 1156,1801 Z"/><path d="M 1156,1801 C 1156,1801 1155,1801 1155,1801 L 1155,1781 1155,1761 C 1155,1761 1156,1761 1156,1761 L 1156,1781 1156,1801 Z"/><path d="M 1155,1801 C 1139,1801 1122,1804 1105,1809 L 1099,1790 1094,1771 C 1115,1765 1136,1761 1155,1761 L 1155,1781 1155,1801 Z"/><path d="M 1105,1809 C 1087,1814 1070,1821 1054,1829 L 1045,1812 1035,1794 C 1053,1784 1074,1776 1094,1771 L 1099,1790 1105,1809 Z"/><path d="M 1054,1829 C 1039,1837 1026,1846 1017,1856 L 1003,1842 988,1828 C 1000,1816 1016,1804 1035,1794 L 1045,1812 1054,1829 Z"/><path d="M 1017,1856 C 1013,1860 1010,1864 1008,1868 L 990,1858 972,1849 C 976,1842 981,1835 988,1828 L 1003,1842 1017,1856 Z"/><path d="M 1008,1868 C 1007,1869 1007,1871 1006,1872 L 987,1867 968,1862 C 969,1858 970,1853 972,1849 L 990,1858 1008,1868 Z"/><path d="M 1006,1872 C 1006,1873 1006,1874 1006,1875 L 986,1875 966,1875 C 966,1871 966,1866 968,1862 L 987,1867 1006,1872 Z"/><path d="M 1006,1875 C 1006,1876 1006,1877 1006,1878 L 987,1883 968,1889 C 966,1884 966,1880 966,1875 L 986,1875 1006,1875 Z"/><path d="M 1006,1878 C 1006,1879 1007,1879 1007,1880 L 991,1891 974,1902 C 971,1898 969,1893 968,1889 L 987,1883 1006,1878 Z"/><path d="M 974,1902 C 974,1902 974,1902 974,1902 L 991,1891 974,1902 Z"/><path d="M 1007,1880 C 1008,1881 1008,1881 1009,1882 L 995,1896 981,1911 C 978,1908 976,1905 974,1902 L 991,1891 1007,1880 Z"/><path d="M 1009,1882 C 1009,1882 1010,1883 1011,1883 L 1000,1900 989,1917 C 986,1915 983,1913 981,1911 L 995,1896 1009,1882 Z"/><path d="M 1011,1883 C 1013,1885 1016,1886 1020,1887 L 1014,1906 1008,1925 C 1001,1923 995,1920 989,1917 L 1000,1900 1011,1883 Z"/><path d="M 1020,1887 C 1029,1890 1040,1891 1051,1891 L 1051,1911 1051,1931 C 1035,1931 1021,1929 1008,1925 L 1014,1906 1020,1887 Z"/><path d="M 1051,1891 C 1085,1891 1124,1882 1149,1872 L 1157,1891 1164,1909 C 1136,1921 1090,1931 1051,1931 L 1051,1911 1051,1891 Z"/><path d="M 1164,1909 C 1164,1909 1164,1909 1164,1909 L 1157,1891 1164,1909 Z"/><path d="M 1149,1872 C 1172,1863 1193,1852 1212,1838 L 1223,1855 1235,1871 C 1213,1886 1189,1899 1164,1909 L 1157,1891 1149,1872 Z"/><path d="M 1212,1838 C 1231,1825 1248,1810 1262,1794 L 1277,1807 1292,1820 C 1276,1839 1256,1856 1235,1871 L 1223,1855 1212,1838 Z"/><path d="M 1262,1794 C 1276,1778 1287,1762 1295,1744 L 1313,1753 1331,1761 C 1322,1781 1309,1802 1292,1820 L 1277,1807 1262,1794 Z"/><path d="M 1295,1744 C 1299,1736 1301,1728 1303,1720 L 1323,1724 1342,1729 C 1340,1740 1336,1750 1331,1761 L 1313,1753 1295,1744 Z"/><path d="M 1303,1720 C 1305,1712 1306,1704 1306,1696 L 1326,1696 1346,1696 C 1346,1707 1345,1718 1342,1729 L 1323,1724 1303,1720 Z"/><path d="M 1306,1696 C 1306,1689 1305,1682 1304,1675 L 1323,1670 1343,1666 C 1345,1676 1346,1686 1346,1696 L 1326,1696 1306,1696 Z"/><path d="M 1343,1665 C 1343,1665 1343,1666 1343,1666 L 1323,1670 1343,1665 Z"/><path d="M 1304,1676 C 1303,1671 1301,1666 1298,1661 L 1315,1652 1333,1642 C 1337,1650 1340,1658 1343,1665 L 1323,1670 1304,1676 Z"/><path d="M 1298,1661 C 1295,1656 1291,1651 1287,1645 L 1302,1633 1318,1620 C 1324,1627 1329,1635 1333,1642 L 1315,1652 1298,1661 Z"/><path d="M 1287,1645 C 1278,1634 1266,1624 1253,1614 L 1264,1598 1275,1581 C 1292,1593 1307,1606 1318,1620 L 1302,1633 1287,1645 Z"/><path d="M 1253,1614 C 1239,1605 1224,1597 1207,1591 L 1214,1572 1220,1553 C 1240,1560 1259,1570 1275,1581 L 1264,1598 1253,1614 Z"/><path d="M 1207,1591 C 1191,1586 1174,1582 1157,1582 L 1157,1562 1157,1542 C 1179,1542 1200,1546 1220,1553 L 1214,1572 1207,1591 Z"/><path d="M 1157,1582 C 1157,1582 1157,1582 1156,1582 L 1156,1562 1156,1542 C 1157,1542 1157,1542 1157,1542 L 1157,1562 1157,1582 Z"/><path d="M 1156,1582 C 1141,1582 1123,1585 1106,1590 L 1101,1571 1095,1552 C 1116,1546 1137,1542 1156,1542 L 1156,1562 1156,1582 Z"/><path d="M 1106,1590 C 1088,1595 1070,1602 1054,1610 L 1045,1592 1036,1575 C 1054,1565 1075,1557 1095,1552 L 1101,1571 1106,1590 Z"/><path d="M 1054,1610 C 1039,1618 1026,1627 1017,1636 L 1003,1622 988,1608 C 1000,1596 1017,1585 1036,1575 L 1045,1592 1054,1610 Z"/><path d="M 1017,1636 C 1013,1640 1010,1644 1008,1648 L 990,1639 973,1629 C 976,1622 982,1615 988,1608 L 1003,1622 1017,1636 Z"/><path d="M 1008,1648 C 1007,1649 1007,1651 1006,1652 L 987,1647 968,1641 C 969,1637 970,1633 973,1629 L 990,1639 1008,1648 Z"/><path d="M 1006,1652 C 1006,1653 1006,1654 1006,1655 L 986,1655 966,1655 C 966,1650 966,1646 968,1641 L 987,1647 1006,1652 Z"/><path d="M 1006,1655 C 1006,1656 1006,1656 1006,1657 L 987,1663 968,1669 C 966,1664 966,1660 966,1655 L 986,1655 1006,1655 Z"/><path d="M 1006,1657 C 1006,1658 1007,1659 1007,1660 L 991,1671 974,1682 C 971,1678 969,1673 968,1669 L 987,1663 1006,1657 Z"/><path d="M 1007,1660 C 1008,1660 1008,1660 1008,1661 L 991,1671 1007,1660 Z"/><path d="M 1008,1661 C 1008,1661 1009,1662 1009,1662 L 995,1676 980,1690 C 978,1687 975,1684 973,1681 L 991,1671 1008,1661 Z"/><path d="M 1009,1662 C 1010,1663 1010,1663 1011,1664 L 1000,1681 989,1697 C 986,1695 983,1693 980,1690 L 995,1676 1009,1662 Z"/><path d="M 1011,1664 C 1014,1666 1017,1667 1020,1668 L 1014,1687 1008,1706 C 1001,1704 994,1701 989,1697 L 1000,1681 1011,1664 Z"/><path d="M 1020,1668 C 1029,1671 1040,1672 1052,1672 L 1052,1692 1052,1712 C 1035,1712 1020,1710 1008,1706 L 1014,1687 1020,1668 Z"/><path d="M 1052,1672 C 1085,1672 1124,1663 1148,1653 L 1156,1671 1164,1690 C 1136,1702 1090,1712 1052,1712 L 1052,1692 1052,1672 Z"/><path d="M 1148,1653 C 1148,1653 1149,1653 1149,1653 L 1156,1671 1148,1653 Z"/><path d="M 1149,1653 C 1171,1644 1192,1632 1212,1619 L 1223,1636 1234,1652 C 1213,1667 1189,1680 1163,1690 L 1156,1671 1149,1653 Z"/><path d="M 1212,1619 C 1231,1606 1248,1591 1262,1575 L 1277,1589 1292,1602 C 1276,1620 1256,1637 1234,1652 L 1223,1636 1212,1619 Z"/><path d="M 1262,1575 C 1276,1560 1287,1543 1295,1526 L 1313,1535 1331,1543 C 1322,1563 1309,1583 1292,1602 L 1277,1589 1262,1575 Z"/><path d="M 1295,1526 C 1299,1518 1302,1510 1304,1502 L 1323,1506 1343,1511 C 1340,1522 1336,1532 1331,1543 L 1313,1535 1295,1526 Z"/><path d="M 1304,1502 C 1305,1494 1306,1486 1306,1478 L 1326,1478 1346,1478 C 1346,1489 1345,1500 1343,1511 L 1323,1506 1304,1502 Z"/><path d="M 1306,1478 C 1306,1471 1306,1464 1304,1457 L 1323,1453 1343,1448 C 1345,1458 1346,1468 1346,1478 L 1326,1478 1306,1478 Z"/><path d="M 1343,1448 C 1343,1448 1343,1448 1343,1448 L 1323,1453 1343,1448 Z"/><path d="M 1304,1458 C 1303,1453 1301,1448 1298,1442 L 1316,1433 1333,1424 C 1337,1432 1341,1440 1343,1448 L 1323,1453 1304,1458 Z"/><path d="M 1298,1442 C 1295,1437 1291,1431 1287,1426 L 1303,1414 1318,1401 C 1324,1408 1329,1416 1333,1424 L 1316,1433 1298,1442 Z"/><path d="M 1287,1426 C 1278,1415 1266,1404 1253,1395 L 1264,1378 1276,1362 C 1293,1373 1307,1387 1318,1401 L 1303,1414 1287,1426 Z"/><path d="M 1253,1395 C 1239,1385 1224,1377 1207,1372 L 1214,1353 1220,1334 C 1240,1341 1259,1350 1276,1362 L 1264,1378 1253,1395 Z"/><path d="M 1207,1372 C 1191,1366 1173,1363 1155,1363 L 1155,1343 1155,1323 C 1178,1323 1200,1327 1220,1334 L 1214,1353 1207,1372 Z"/><path d="M 1155,1323 C 1155,1323 1155,1323 1155,1323 1155,1323 1155,1323 1155,1323 L 1155,1343 1155,1323 Z"/><path d="M 1155,1363 C 1140,1363 1123,1366 1105,1370 L 1100,1351 1095,1332 C 1116,1326 1137,1323 1155,1323 L 1155,1343 1155,1363 Z"/><path d="M 1105,1370 C 1088,1375 1070,1382 1054,1391 L 1045,1373 1035,1355 C 1054,1346 1074,1338 1095,1332 L 1100,1351 1105,1370 Z"/><path d="M 1054,1391 C 1039,1399 1026,1408 1017,1417 L 1002,1403 988,1389 C 1000,1377 1016,1365 1035,1355 L 1045,1373 1054,1391 Z"/><path d="M 1017,1417 C 1013,1421 1010,1425 1008,1429 L 990,1420 972,1411 C 976,1404 981,1396 988,1389 L 1002,1403 1017,1417 Z"/><path d="M 1008,1429 C 1007,1431 1006,1432 1006,1434 L 986,1428 967,1423 C 968,1419 970,1415 972,1411 L 990,1420 1008,1429 Z"/><path d="M 1006,1434 C 1005,1435 1005,1436 1005,1437 L 985,1437 965,1437 C 965,1432 966,1428 967,1423 L 986,1428 1006,1434 Z"/><path d="M 1005,1437 C 1005,1438 1005,1438 1006,1439 L 986,1445 967,1450 C 966,1446 965,1441 965,1437 L 985,1437 1005,1437 Z"/><path d="M 1006,1439 C 1006,1440 1006,1441 1007,1442 L 990,1453 973,1463 C 970,1459 969,1455 967,1450 L 986,1445 1006,1439 Z"/><path d="M 1007,1442 C 1007,1442 1007,1442 1007,1442 L 990,1453 1007,1442 Z"/><path d="M 1007,1442 C 1007,1443 1008,1443 1008,1443 L 994,1458 980,1472 C 977,1469 975,1466 973,1463 L 990,1453 1007,1442 Z"/><path d="M 1008,1443 C 1009,1444 1009,1445 1010,1445 L 999,1462 988,1479 C 985,1477 983,1474 980,1472 L 994,1458 1008,1443 Z"/><path d="M 1010,1445 C 1013,1447 1016,1448 1019,1449 L 1013,1468 1008,1487 C 1000,1485 994,1482 988,1479 L 999,1462 1010,1445 Z"/><path d="M 1019,1449 C 1028,1452 1039,1453 1051,1453 L 1051,1473 1051,1493 C 1035,1493 1020,1491 1008,1487 L 1013,1468 1019,1449 Z"/><path d="M 1051,1453 C 1085,1453 1124,1444 1148,1434 L 1155,1453 1163,1471 C 1136,1483 1090,1493 1051,1493 L 1051,1473 1051,1453 Z"/><path d="M 1148,1434 C 1148,1434 1148,1434 1148,1434 L 1155,1453 1148,1434 Z"/><path d="M 1148,1434 C 1171,1425 1192,1414 1211,1400 L 1223,1417 1234,1433 C 1212,1448 1188,1461 1163,1471 L 1155,1453 1148,1434 Z"/><path d="M 1211,1400 C 1231,1387 1248,1372 1262,1356 L 1277,1370 1292,1383 C 1276,1401 1256,1418 1234,1433 L 1223,1417 1211,1400 Z"/><path d="M 1262,1356 C 1276,1341 1287,1324 1295,1307 L 1313,1316 1332,1324 C 1322,1344 1309,1364 1292,1383 L 1277,1370 1262,1356 Z"/><path d="M 1295,1307 C 1299,1299 1302,1291 1304,1283 L 1323,1287 1343,1292 C 1340,1303 1336,1313 1332,1324 L 1313,1316 1295,1307 Z"/><path d="M 1304,1283 C 1306,1275 1307,1267 1307,1259 L 1327,1259 1347,1259 C 1347,1270 1345,1281 1343,1292 L 1323,1287 1304,1283 Z"/><path d="M 1307,1259 C 1307,1252 1306,1245 1304,1238 L 1324,1234 1343,1229 C 1345,1239 1347,1249 1347,1259 L 1327,1259 1307,1259 Z"/><path d="M 1343,1228 C 1343,1229 1343,1229 1343,1229 L 1324,1234 1343,1228 Z"/><path d="M 1304,1239 C 1303,1234 1301,1229 1298,1224 L 1316,1214 1333,1205 C 1338,1213 1341,1221 1343,1228 L 1324,1234 1304,1239 Z"/><path d="M 1298,1224 C 1295,1218 1292,1213 1287,1208 L 1303,1195 1318,1183 C 1324,1190 1329,1197 1333,1205 L 1316,1214 1298,1224 Z"/><path d="M 1287,1208 C 1278,1196 1267,1185 1253,1176 L 1265,1160 1276,1143 C 1293,1155 1307,1168 1318,1183 L 1303,1195 1287,1208 Z"/><path d="M 1253,1176 C 1239,1167 1224,1158 1207,1153 L 1214,1134 1220,1115 C 1240,1122 1259,1132 1276,1143 L 1265,1160 1253,1176 Z"/><path d="M 1207,1153 C 1191,1147 1173,1144 1156,1144 L 1156,1124 1156,1104 C 1178,1104 1200,1108 1220,1115 L 1214,1134 1207,1153 Z"/><path d="M 1155,1104 C 1156,1104 1156,1104 1156,1104 1156,1104 1156,1104 1156,1104 L 1156,1124 1155,1104 Z"/><path d="M 1156,1144 C 1140,1144 1123,1147 1105,1152 L 1100,1133 1094,1113 C 1115,1107 1137,1104 1155,1104 L 1156,1124 1156,1144 Z"/><path d="M 1105,1152 C 1088,1157 1070,1164 1054,1172 L 1045,1155 1035,1137 C 1053,1127 1074,1119 1094,1113 L 1100,1133 1105,1152 Z"/><path d="M 1054,1172 C 1039,1180 1026,1189 1017,1199 L 1002,1185 988,1171 C 1000,1159 1016,1147 1035,1137 L 1045,1155 1054,1172 Z"/><path d="M 1017,1199 C 1013,1203 1010,1207 1008,1211 L 990,1201 972,1192 C 976,1185 981,1178 988,1171 L 1002,1185 1017,1199 Z"/><path d="M 1008,1211 C 1007,1212 1006,1214 1006,1215 L 987,1210 967,1204 C 968,1200 970,1196 972,1192 L 990,1201 1008,1211 Z"/><path d="M 1006,1215 C 1006,1216 1005,1217 1005,1218 L 985,1218 965,1218 C 965,1214 966,1209 967,1204 L 987,1210 1006,1215 Z"/><path d="M 1005,1218 C 1005,1219 1006,1219 1006,1220 L 987,1226 967,1232 C 966,1227 965,1223 965,1218 L 985,1218 1005,1218 Z"/><path d="M 1006,1220 C 1006,1221 1006,1222 1007,1223 L 990,1234 973,1244 C 971,1240 969,1236 967,1232 L 987,1226 1006,1220 Z"/><path d="M 1007,1223 C 1007,1223 1007,1223 1007,1223 L 990,1234 1007,1223 Z"/><path d="M 1007,1223 C 1008,1224 1008,1224 1008,1224 L 994,1239 980,1253 C 977,1250 975,1247 973,1244 L 990,1234 1007,1223 Z"/><path d="M 1008,1224 C 1009,1225 1010,1226 1010,1226 L 999,1243 989,1260 C 985,1257 983,1255 980,1253 L 994,1239 1008,1224 Z"/><path d="M 1010,1226 C 1013,1228 1016,1229 1019,1230 L 1013,1249 1007,1268 C 1000,1266 994,1263 989,1260 L 999,1243 1010,1226 Z"/><path d="M 1019,1230 C 1028,1233 1039,1234 1051,1234 L 1051,1254 1051,1274 C 1034,1274 1020,1272 1007,1268 L 1013,1249 1019,1230 Z"/><path d="M 1051,1234 C 1084,1234 1124,1225 1148,1215 L 1156,1234 1163,1252 C 1135,1264 1089,1274 1051,1274 L 1051,1254 1051,1234 Z"/><path d="M 1163,1252 C 1163,1252 1163,1252 1163,1252 L 1156,1234 1163,1252 Z"/><path d="M 1148,1215 C 1179,1202 1218,1178 1250,1147 L 1264,1161 1278,1175 C 1243,1210 1199,1238 1163,1252 L 1156,1234 1148,1215 Z"/><path d="M 1250,1147 C 1265,1132 1278,1115 1288,1097 L 1305,1107 1323,1116 C 1312,1138 1296,1157 1278,1175 L 1264,1161 1250,1147 Z"/><path d="M 1288,1097 C 1292,1089 1296,1080 1298,1071 L 1318,1077 1337,1082 C 1334,1094 1329,1105 1323,1116 L 1305,1107 1288,1097 Z"/><path d="M 1298,1071 C 1301,1063 1302,1054 1302,1045 L 1322,1045 1342,1045 C 1342,1058 1340,1070 1337,1082 L 1318,1077 1298,1071 Z"/><path d="M 1302,1045 C 1302,1037 1301,1028 1298,1020 L 1318,1014 1337,1008 C 1340,1021 1342,1033 1342,1045 L 1322,1045 1302,1045 Z"/><path d="M 1333,1002 C 1335,1004 1336,1006 1337,1008 L 1318,1014 1333,1002 Z"/><path d="M 1302,1026 C 1301,1025 1299,1024 1297,1022 L 1307,1005 1317,987 C 1323,991 1329,996 1333,1002 L 1318,1014 1302,1026 Z"/><path d="M 1297,1022 C 1294,1021 1291,1020 1287,1019 L 1292,999 1297,980 C 1304,982 1311,984 1317,987 L 1307,1005 1297,1022 Z"/><path d="M 1287,1019 C 1278,1016 1266,1016 1255,1016 L 1255,996 1255,976 C 1270,976 1285,977 1297,980 L 1292,999 1287,1019 Z"/><path d="M 1255,1016 C 1222,1016 1187,1021 1169,1021 L 1169,1001 1169,981 C 1187,981 1222,976 1255,976 L 1255,996 1255,1016 Z"/><path d="M 1169,1021 C 1166,1021 1163,1021 1161,1021 L 1164,1001 1166,981 C 1167,981 1168,981 1169,981 L 1169,1001 1169,1021 Z"/><path d="M 1161,1021 C 1159,1021 1158,1020 1156,1020 L 1162,1001 1166,986 1164,1001 1161,1021 Z"/><path d="M 1156,1020 C 1154,1019 1152,1018 1150,1017 L 1160,1000 1163,994 1162,1001 1156,1020 Z"/></g><g/></g></g><g><desc>Drawing</desc><g><g style="stroke:none;fill:rgb(0,0,0)"><path d="M 1823,2019 C 1823,2019 1823,2019 1822,2019 L 1829,2000 1836,1981 C 1836,1981 1836,1981 1836,1981 L 1829,2000 1823,2019 Z"/><path d="M 1822,2019 C 1822,2019 1822,2019 1822,2019 L 1829,2000 1835,1981 C 1836,1981 1836,1981 1836,1981 L 1829,2000 1822,2019 Z"/><path d="M 1822,2019 C 1822,2019 1822,2019 1821,2019 L 1828,2000 1835,1981 C 1835,1981 1835,1981 1835,1981 L 1829,2000 1822,2019 Z"/><path d="M 1821,2019 C 1821,2019 1821,2019 1821,2019 L 1827,2000 1834,1981 C 1834,1981 1835,1981 1835,1981 L 1828,2000 1821,2019 Z"/><path d="M 1821,2019 C 1820,2018 1819,2018 1818,2018 L 1825,1999 1832,1980 C 1833,1980 1833,1981 1834,1981 L 1827,2000 1821,2019 Z"/><path d="M 1818,2018 C 1817,2017 1816,2017 1815,2017 L 1822,1998 1829,1979 C 1830,1979 1831,1980 1832,1980 L 1825,1999 1818,2018 Z"/><path d="M 1815,2017 C 1813,2016 1810,2015 1807,2013 L 1814,1995 1821,1976 C 1824,1977 1827,1978 1829,1979 L 1822,1998 1815,2017 Z"/><path d="M 1807,2013 C 1803,2012 1800,2011 1796,2009 L 1803,1991 1811,1972 C 1814,1973 1818,1975 1821,1976 L 1814,1995 1807,2013 Z"/><path d="M 1796,2009 C 1780,2003 1758,1994 1737,1983 L 1746,1965 1755,1947 C 1775,1957 1795,1966 1811,1972 L 1803,1991 1796,2009 Z"/><path d="M 1737,1983 C 1715,1972 1693,1959 1676,1946 L 1689,1930 1701,1914 C 1716,1926 1735,1937 1755,1947 L 1746,1965 1737,1983 Z"/><path d="M 1676,1946 C 1667,1938 1659,1930 1654,1922 L 1670,1911 1686,1899 C 1690,1904 1695,1909 1701,1914 L 1689,1930 1676,1946 Z"/><path d="M 1654,1922 C 1650,1918 1648,1913 1646,1908 L 1665,1901 1683,1894 C 1684,1896 1685,1898 1686,1899 L 1670,1911 1654,1922 Z"/><path d="M 1646,1908 C 1644,1903 1643,1897 1643,1891 L 1663,1891 1683,1891 C 1683,1892 1683,1893 1683,1894 L 1665,1901 1646,1908 Z"/><path d="M 1643,1891 C 1643,1891 1643,1891 1643,1891 L 1663,1891 1683,1891 C 1683,1891 1683,1891 1683,1891 L 1663,1891 1643,1891 Z"/><path d="M 1683,1891 C 1683,1891 1683,1891 1683,1891 1683,1891 1683,1891 1683,1891 L 1663,1891 1683,1891 Z"/><path d="M 1643,1892 C 1643,1891 1643,1891 1643,1890 L 1663,1890 1683,1890 C 1683,1890 1683,1891 1683,1891 L 1663,1891 1643,1892 Z"/><path d="M 1643,1890 C 1643,1881 1645,1872 1648,1864 L 1667,1871 1685,1878 C 1684,1882 1683,1886 1683,1890 L 1663,1890 1643,1890 Z"/><path d="M 1648,1864 C 1651,1855 1656,1847 1662,1840 L 1678,1851 1694,1863 C 1690,1868 1687,1873 1685,1878 L 1667,1871 1648,1864 Z"/><path d="M 1662,1840 C 1672,1825 1687,1812 1705,1800 L 1716,1816 1727,1833 C 1713,1842 1702,1852 1694,1863 L 1678,1851 1662,1840 Z"/><path d="M 1705,1800 C 1722,1788 1742,1779 1763,1772 L 1769,1791 1775,1810 C 1758,1816 1741,1824 1727,1833 L 1716,1816 1705,1800 Z"/><path d="M 1763,1772 C 1784,1765 1806,1761 1828,1761 L 1828,1781 1828,1801 C 1810,1801 1792,1805 1775,1810 L 1769,1791 1763,1772 Z"/><path d="M 1828,1761 C 1828,1761 1829,1761 1829,1761 L 1829,1781 1829,1801 C 1829,1801 1828,1801 1828,1801 L 1828,1781 1828,1761 Z"/><path d="M 1829,1801 C 1829,1801 1829,1801 1829,1801 1829,1801 1829,1801 1829,1801 L 1829,1781 1829,1801 Z"/><path d="M 1829,1761 C 1829,1761 1829,1761 1829,1761 L 1829,1781 1829,1801 C 1829,1801 1829,1801 1829,1801 L 1829,1781 1829,1761 Z"/><path d="M 1829,1761 C 1848,1761 1869,1765 1891,1771 L 1885,1790 1880,1809 C 1862,1804 1845,1801 1829,1801 L 1829,1781 1829,1761 Z"/><path d="M 1891,1771 C 1911,1776 1932,1785 1950,1794 L 1941,1812 1931,1830 C 1916,1821 1898,1814 1880,1809 L 1885,1790 1891,1771 Z"/><path d="M 1950,1794 C 1969,1804 1986,1816 1998,1828 L 1983,1842 1969,1856 C 1960,1846 1946,1837 1931,1830 L 1941,1812 1950,1794 Z"/><path d="M 1998,1828 C 2004,1835 2010,1842 2013,1849 L 1996,1858 1978,1868 C 1976,1864 1973,1860 1969,1856 L 1983,1842 1998,1828 Z"/><path d="M 2013,1849 C 2016,1853 2017,1857 2018,1861 L 1999,1867 1980,1872 C 1979,1871 1979,1869 1978,1868 L 1996,1858 2013,1849 Z"/><path d="M 2018,1861 C 2020,1866 2020,1871 2020,1875 L 2000,1875 1980,1875 C 1980,1874 1980,1873 1980,1872 L 1999,1867 2018,1861 Z"/><path d="M 2020,1875 C 2020,1880 2020,1884 2018,1889 L 1999,1883 1980,1877 C 1980,1876 1980,1876 1980,1875 L 2000,1875 2020,1875 Z"/><path d="M 2018,1889 C 2017,1893 2015,1897 2012,1901 L 1995,1891 1979,1880 C 1979,1879 1980,1878 1980,1877 L 1999,1883 2018,1889 Z"/><path d="M 1978,1880 C 1979,1880 1979,1880 1979,1880 L 1995,1891 1978,1880 Z"/><path d="M 2012,1901 C 2010,1904 2008,1907 2005,1910 L 1991,1896 1977,1881 C 1978,1881 1978,1880 1978,1880 L 1995,1891 2012,1901 Z"/><path d="M 2005,1910 C 2003,1912 2000,1915 1997,1917 L 1986,1900 1975,1883 C 1976,1883 1977,1882 1977,1881 L 1991,1896 2005,1910 Z"/><path d="M 1997,1917 C 1991,1920 1985,1923 1977,1926 L 1972,1906 1966,1887 C 1969,1886 1972,1885 1975,1883 L 1986,1900 1997,1917 Z"/><path d="M 1977,1926 C 1965,1929 1950,1931 1934,1931 L 1934,1911 1934,1891 C 1946,1891 1957,1890 1966,1887 L 1972,1906 1977,1926 Z"/><path d="M 1934,1931 C 1895,1931 1850,1921 1822,1910 L 1829,1891 1837,1873 C 1861,1883 1900,1891 1934,1891 L 1934,1911 1934,1931 Z"/><path d="M 1822,1910 C 1822,1910 1822,1910 1822,1910 L 1829,1891 1822,1910 Z"/><path d="M 1822,1910 C 1796,1900 1773,1887 1751,1872 L 1763,1855 1774,1839 C 1793,1852 1814,1864 1837,1873 L 1829,1891 1822,1910 Z"/><path d="M 1751,1872 C 1729,1857 1710,1839 1694,1821 L 1709,1808 1724,1794 C 1738,1811 1755,1826 1774,1839 L 1763,1855 1751,1872 Z"/><path d="M 1694,1821 C 1677,1802 1664,1782 1654,1762 L 1673,1754 1691,1745 C 1699,1762 1710,1779 1724,1794 L 1709,1808 1694,1821 Z"/><path d="M 1654,1762 C 1650,1751 1646,1741 1643,1730 L 1663,1725 1682,1721 C 1684,1729 1687,1737 1691,1745 L 1673,1754 1654,1762 Z"/><path d="M 1643,1730 C 1641,1719 1639,1708 1639,1697 L 1659,1697 1679,1697 C 1679,1705 1680,1713 1682,1721 L 1663,1725 1643,1730 Z"/><path d="M 1639,1697 C 1639,1687 1641,1676 1643,1666 L 1663,1671 1682,1676 C 1680,1683 1679,1690 1679,1697 L 1659,1697 1639,1697 Z"/><path d="M 1682,1676 C 1682,1676 1682,1676 1682,1676 L 1663,1671 1682,1676 Z"/><path d="M 1643,1666 C 1645,1658 1648,1650 1653,1642 L 1670,1652 1688,1661 C 1685,1666 1683,1671 1682,1676 L 1663,1671 1643,1666 Z"/><path d="M 1653,1642 C 1657,1635 1662,1628 1668,1620 L 1683,1633 1699,1645 C 1694,1651 1691,1656 1688,1661 L 1670,1652 1653,1642 Z"/><path d="M 1668,1620 C 1679,1606 1693,1593 1710,1581 L 1722,1598 1733,1614 C 1720,1623 1708,1634 1699,1645 L 1683,1633 1668,1620 Z"/><path d="M 1710,1581 C 1727,1570 1746,1560 1766,1553 L 1772,1572 1779,1591 C 1762,1596 1747,1605 1733,1614 L 1722,1598 1710,1581 Z"/><path d="M 1766,1553 C 1786,1546 1808,1542 1830,1542 L 1830,1562 1830,1582 C 1812,1582 1795,1585 1779,1591 L 1772,1572 1766,1553 Z"/><path d="M 1830,1542 C 1830,1542 1830,1542 1830,1542 L 1830,1562 1830,1582 C 1830,1582 1830,1582 1830,1582 L 1830,1562 1830,1542 Z"/><path d="M 1830,1542 C 1849,1542 1870,1545 1891,1551 L 1886,1570 1881,1590 C 1863,1585 1846,1582 1830,1582 L 1830,1562 1830,1542 Z"/><path d="M 1891,1551 C 1912,1557 1932,1565 1950,1574 L 1941,1592 1932,1610 C 1916,1601 1898,1594 1881,1590 L 1886,1570 1891,1551 Z"/><path d="M 1950,1574 C 1969,1584 1986,1596 1998,1608 L 1983,1622 1969,1636 C 1960,1627 1947,1618 1932,1610 L 1941,1592 1950,1574 Z"/><path d="M 1998,1608 C 2004,1615 2010,1623 2013,1630 L 1996,1639 1978,1648 C 1976,1644 1973,1640 1969,1636 L 1983,1622 1998,1608 Z"/><path d="M 2013,1630 C 2015,1634 2017,1638 2018,1642 L 1999,1647 1980,1652 C 1979,1651 1979,1649 1978,1648 L 1996,1639 2013,1630 Z"/><path d="M 2018,1642 C 2019,1647 2020,1651 2020,1656 L 2000,1656 1980,1656 C 1980,1655 1980,1653 1980,1652 L 1999,1647 2018,1642 Z"/><path d="M 2020,1656 C 2020,1660 2019,1665 2018,1669 L 1999,1664 1980,1658 C 1980,1657 1980,1656 1980,1656 L 2000,1656 2020,1656 Z"/><path d="M 2018,1669 C 2017,1674 2015,1678 2012,1682 L 1995,1672 1978,1661 C 1979,1660 1979,1659 1980,1658 L 1999,1664 2018,1669 Z"/><path d="M 1978,1661 C 1978,1661 1978,1661 1978,1661 L 1995,1672 1978,1661 Z"/><path d="M 2012,1682 C 2010,1685 2008,1688 2005,1691 L 1991,1677 1977,1662 C 1978,1662 1978,1662 1978,1661 L 1995,1672 2012,1682 Z"/><path d="M 2005,1691 C 2003,1693 2000,1696 1997,1698 L 1986,1681 1975,1664 C 1976,1664 1977,1663 1977,1662 L 1991,1677 2005,1691 Z"/><path d="M 1997,1698 C 1991,1701 1985,1704 1978,1706 L 1972,1687 1966,1668 C 1970,1667 1973,1666 1975,1664 L 1986,1681 1997,1698 Z"/><path d="M 1978,1706 C 1965,1710 1950,1712 1934,1712 L 1934,1692 1934,1672 C 1946,1672 1957,1671 1966,1668 L 1972,1687 1978,1706 Z"/><path d="M 1934,1712 C 1895,1712 1849,1702 1821,1690 L 1829,1671 1837,1653 C 1861,1663 1901,1672 1934,1672 L 1934,1692 1934,1712 Z"/><path d="M 1836,1653 C 1837,1653 1837,1653 1837,1653 L 1829,1671 1836,1653 Z"/><path d="M 1822,1690 C 1796,1680 1773,1667 1751,1652 L 1762,1636 1774,1619 C 1793,1633 1814,1644 1836,1653 L 1829,1671 1822,1690 Z"/><path d="M 1751,1652 C 1729,1637 1710,1621 1694,1602 L 1709,1589 1723,1576 C 1738,1592 1755,1606 1774,1619 L 1762,1636 1751,1652 Z"/><path d="M 1694,1602 C 1677,1584 1664,1564 1654,1544 L 1672,1535 1691,1527 C 1698,1544 1710,1560 1723,1576 L 1709,1589 1694,1602 Z"/><path d="M 1654,1544 C 1649,1533 1646,1523 1643,1512 L 1663,1507 1682,1503 C 1684,1511 1687,1519 1691,1527 L 1672,1535 1654,1544 Z"/><path d="M 1643,1512 C 1641,1501 1639,1490 1639,1479 L 1659,1479 1679,1479 C 1679,1487 1680,1495 1682,1503 L 1663,1507 1643,1512 Z"/><path d="M 1639,1479 C 1639,1469 1640,1458 1643,1448 L 1662,1453 1682,1458 C 1680,1465 1679,1472 1679,1479 L 1659,1479 1639,1479 Z"/><path d="M 1682,1458 C 1682,1458 1682,1458 1682,1458 L 1662,1453 1682,1458 Z"/><path d="M 1643,1448 C 1645,1440 1648,1432 1652,1424 L 1670,1433 1688,1443 C 1685,1448 1683,1453 1682,1458 L 1662,1453 1643,1448 Z"/><path d="M 1652,1424 C 1656,1417 1661,1409 1667,1402 L 1683,1414 1699,1426 C 1694,1432 1691,1437 1688,1443 L 1670,1433 1652,1424 Z"/><path d="M 1667,1402 C 1678,1387 1693,1374 1710,1362 L 1721,1379 1733,1395 C 1719,1404 1708,1415 1699,1426 L 1683,1414 1667,1402 Z"/><path d="M 1710,1362 C 1726,1351 1745,1341 1765,1334 L 1772,1353 1778,1372 C 1762,1378 1746,1386 1733,1395 L 1721,1379 1710,1362 Z"/><path d="M 1765,1334 C 1786,1327 1807,1323 1829,1323 L 1830,1343 1830,1363 C 1812,1363 1795,1366 1778,1372 L 1772,1353 1765,1334 Z"/><path d="M 1829,1323 C 1830,1323 1830,1323 1830,1323 1830,1323 1830,1323 1830,1323 L 1830,1343 1829,1323 Z"/><path d="M 1830,1323 C 1849,1323 1870,1326 1891,1332 L 1885,1351 1880,1371 C 1863,1366 1845,1363 1829,1363 L 1830,1343 1830,1323 Z"/><path d="M 1891,1332 C 1911,1338 1932,1346 1950,1356 L 1941,1373 1931,1391 C 1916,1383 1898,1376 1880,1371 L 1885,1351 1891,1332 Z"/><path d="M 1950,1356 C 1969,1366 1985,1377 1997,1390 L 1983,1403 1969,1417 C 1959,1408 1946,1399 1931,1391 L 1941,1373 1950,1356 Z"/><path d="M 1997,1390 C 2004,1396 2009,1404 2013,1411 L 1995,1420 1978,1429 C 1976,1425 1972,1421 1969,1417 L 1983,1403 1997,1390 Z"/><path d="M 2013,1411 C 2015,1415 2017,1419 2018,1423 L 1999,1428 1979,1434 C 1979,1432 1978,1431 1978,1429 L 1995,1420 2013,1411 Z"/><path d="M 2018,1423 C 2019,1428 2020,1432 2020,1437 L 2000,1437 1980,1437 C 1980,1436 1980,1435 1979,1434 L 1999,1428 2018,1423 Z"/><path d="M 2020,1437 C 2020,1441 2019,1446 2018,1450 L 1999,1445 1980,1439 C 1980,1438 1980,1438 1980,1437 L 2000,1437 2020,1437 Z"/><path d="M 2018,1450 C 2017,1455 2015,1459 2012,1463 L 1995,1453 1978,1442 C 1979,1441 1979,1440 1980,1439 L 1999,1445 2018,1450 Z"/><path d="M 1978,1442 C 1978,1442 1978,1442 1978,1442 L 1995,1453 1978,1442 Z"/><path d="M 2012,1463 C 2010,1466 2008,1469 2005,1472 L 1991,1458 1977,1443 C 1977,1443 1978,1443 1978,1442 L 1995,1453 2012,1463 Z"/><path d="M 2005,1472 C 2003,1474 2000,1477 1997,1479 L 1986,1462 1975,1445 C 1976,1445 1976,1444 1977,1443 L 1991,1458 2005,1472 Z"/><path d="M 1997,1479 C 1991,1482 1985,1485 1978,1487 L 1972,1468 1966,1449 C 1969,1448 1972,1447 1975,1445 L 1986,1462 1997,1479 Z"/><path d="M 1978,1487 C 1966,1491 1951,1493 1935,1493 L 1935,1473 1935,1453 C 1946,1453 1957,1452 1966,1449 L 1972,1468 1978,1487 Z"/><path d="M 1935,1493 C 1896,1493 1850,1483 1822,1471 L 1830,1453 1837,1434 C 1862,1444 1901,1453 1935,1453 L 1935,1473 1935,1493 Z"/><path d="M 1837,1434 C 1837,1434 1837,1434 1837,1434 L 1830,1453 1837,1434 Z"/><path d="M 1822,1471 C 1797,1461 1773,1448 1751,1434 L 1763,1417 1774,1401 C 1793,1414 1815,1425 1837,1434 L 1830,1453 1822,1471 Z"/><path d="M 1751,1434 C 1730,1419 1710,1402 1694,1384 L 1708,1370 1723,1357 C 1738,1373 1755,1388 1774,1401 L 1763,1417 1751,1434 Z"/><path d="M 1694,1384 C 1677,1365 1663,1345 1654,1325 L 1672,1316 1690,1308 C 1698,1325 1709,1341 1723,1357 L 1708,1370 1694,1384 Z"/><path d="M 1654,1325 C 1649,1314 1646,1304 1643,1293 L 1662,1288 1682,1284 C 1684,1292 1687,1300 1690,1308 L 1672,1316 1654,1325 Z"/><path d="M 1643,1293 C 1640,1282 1639,1271 1639,1260 L 1659,1260 1679,1260 C 1679,1268 1680,1276 1682,1284 L 1662,1288 1643,1293 Z"/><path d="M 1639,1260 C 1639,1250 1640,1239 1643,1229 L 1662,1234 1682,1239 C 1680,1246 1679,1253 1679,1260 L 1659,1260 1639,1260 Z"/><path d="M 1682,1239 C 1682,1239 1682,1239 1682,1239 L 1662,1234 1682,1239 Z"/><path d="M 1643,1229 C 1645,1222 1648,1213 1652,1205 L 1670,1215 1688,1224 C 1685,1229 1683,1234 1682,1239 L 1662,1234 1643,1229 Z"/><path d="M 1652,1205 C 1656,1198 1661,1190 1667,1183 L 1683,1195 1698,1208 C 1694,1213 1691,1219 1688,1224 L 1670,1215 1652,1205 Z"/><path d="M 1667,1183 C 1678,1169 1693,1155 1710,1144 L 1721,1160 1732,1176 C 1719,1186 1707,1197 1698,1208 L 1683,1195 1667,1183 Z"/><path d="M 1710,1144 C 1726,1132 1745,1122 1765,1115 L 1772,1134 1778,1153 C 1762,1159 1746,1167 1732,1176 L 1721,1160 1710,1144 Z"/><path d="M 1765,1115 C 1786,1108 1807,1104 1829,1104 L 1829,1124 1830,1144 C 1812,1144 1795,1147 1778,1153 L 1772,1134 1765,1115 Z"/><path d="M 1829,1104 C 1829,1104 1829,1104 1829,1104 L 1829,1124 1829,1104 Z"/><path d="M 1829,1104 C 1829,1104 1829,1104 1829,1104 L 1829,1124 1829,1144 C 1829,1144 1829,1144 1829,1144 L 1829,1124 1829,1104 Z"/><path d="M 1829,1104 C 1849,1104 1870,1107 1891,1113 L 1886,1132 1880,1152 C 1863,1147 1845,1144 1829,1144 L 1829,1124 1829,1104 Z"/><path d="M 1891,1113 C 1912,1119 1932,1127 1951,1137 L 1941,1154 1932,1172 C 1916,1164 1898,1157 1880,1152 L 1886,1132 1891,1113 Z"/><path d="M 1951,1137 C 1970,1147 1986,1159 1998,1171 L 1984,1185 1969,1199 C 1960,1189 1947,1180 1932,1172 L 1941,1154 1951,1137 Z"/><path d="M 1998,1171 C 2005,1178 2010,1185 2014,1192 L 1996,1201 1978,1211 C 1976,1207 1973,1203 1969,1199 L 1984,1185 1998,1171 Z"/><path d="M 2014,1192 C 2016,1196 2018,1201 2019,1205 L 1999,1210 1980,1215 C 1980,1214 1979,1212 1978,1211 L 1996,1201 2014,1192 Z"/><path d="M 2019,1205 C 2020,1209 2021,1214 2021,1218 L 2001,1218 1981,1218 C 1981,1217 1980,1216 1980,1215 L 1999,1210 2019,1205 Z"/><path d="M 2021,1218 C 2021,1223 2020,1227 2019,1232 L 1999,1226 1980,1221 C 1980,1220 1981,1219 1981,1218 L 2001,1218 2021,1218 Z"/><path d="M 2019,1232 C 2017,1236 2015,1241 2013,1245 L 1996,1234 1979,1223 C 1979,1223 1980,1222 1980,1221 L 1999,1226 2019,1232 Z"/><path d="M 2013,1245 C 2013,1245 2013,1245 2013,1245 L 1996,1234 2013,1245 Z"/><path d="M 2013,1245 C 2011,1248 2008,1251 2005,1254 L 1992,1239 1978,1225 C 1978,1224 1979,1224 1979,1223 L 1996,1234 2013,1245 Z"/><path d="M 2005,1254 C 2003,1256 2000,1258 1997,1260 L 1986,1243 1976,1226 C 1976,1226 1977,1225 1978,1225 L 1992,1239 2005,1254 Z"/><path d="M 1997,1260 C 1992,1263 1985,1266 1978,1268 L 1972,1249 1967,1230 C 1970,1229 1973,1228 1976,1226 L 1986,1243 1997,1260 Z"/><path d="M 1978,1268 C 1966,1272 1951,1274 1935,1274 L 1935,1254 1935,1234 C 1947,1234 1958,1233 1967,1230 L 1972,1249 1978,1268 Z"/><path d="M 1935,1274 C 1897,1274 1850,1264 1822,1252 L 1829,1234 1837,1215 C 1862,1225 1902,1234 1935,1234 L 1935,1254 1935,1274 Z"/><path d="M 1822,1252 C 1822,1252 1822,1252 1822,1252 L 1829,1234 1822,1252 Z"/><path d="M 1822,1252 C 1786,1238 1742,1210 1707,1175 L 1721,1161 1735,1147 C 1767,1178 1806,1202 1837,1215 L 1829,1234 1822,1252 Z"/><path d="M 1707,1175 C 1689,1157 1673,1137 1662,1116 L 1680,1106 1697,1097 C 1707,1115 1720,1132 1735,1147 L 1721,1161 1707,1175 Z"/><path d="M 1662,1116 C 1656,1104 1652,1093 1648,1081 L 1668,1076 1687,1071 C 1689,1080 1693,1088 1697,1097 L 1680,1106 1662,1116 Z"/><path d="M 1648,1081 C 1645,1069 1643,1057 1643,1044 L 1663,1044 1683,1044 C 1683,1053 1685,1062 1687,1071 L 1668,1076 1648,1081 Z"/><path d="M 1643,1044 C 1643,1032 1645,1021 1648,1008 L 1667,1014 1687,1019 C 1684,1028 1683,1036 1683,1044 L 1663,1044 1643,1044 Z"/><path d="M 1648,1008 C 1649,1006 1650,1003 1652,1001 L 1667,1014 1648,1008 Z"/><path d="M 1652,1001 C 1656,996 1662,991 1669,988 L 1679,1005 1688,1023 C 1686,1024 1684,1025 1683,1027 L 1667,1014 1652,1001 Z"/><path d="M 1669,988 C 1675,984 1681,982 1689,980 L 1693,1000 1698,1019 C 1694,1020 1691,1021 1688,1023 L 1679,1005 1669,988 Z"/><path d="M 1689,980 C 1701,977 1716,976 1731,976 L 1731,996 1731,1016 C 1719,1016 1708,1017 1698,1019 L 1693,1000 1689,980 Z"/><path d="M 1731,976 C 1763,976 1798,982 1815,982 L 1815,1002 1815,1022 C 1798,1022 1763,1016 1731,1016 L 1731,996 1731,976 Z"/><path d="M 1815,982 C 1817,982 1818,982 1819,981 L 1821,1001 1824,1021 C 1822,1021 1819,1022 1815,1022 L 1815,1002 1815,982 Z"/><path d="M 1819,986 L 1823,1001 1829,1020 C 1828,1020 1826,1021 1824,1021 L 1821,1001 1819,986 Z"/><path d="M 1822,994 L 1825,1000 1835,1017 C 1833,1018 1831,1019 1829,1020 L 1823,1001 1822,994 Z"/></g><g/></g></g><g><desc>Drawing</desc><g><g style="stroke:none;fill:rgb(0,0,0)"><path d="M 1385,1996 L 1385,996 1405,996 1425,996 1425,1996 1405,1996 1385,1996 Z"/></g><g/></g></g><g><desc>Drawing</desc><g><g style="stroke:none;fill:rgb(0,0,0)"><path d="M 1546,1996 L 1546,996 1566,996 1586,996 1586,1996 1566,1996 1546,1996 Z"/></g><g/></g></g><g><desc>Drawing</desc><g><g style="stroke:none;fill:rgb(0,0,0)"><path d="M 0,646 L 1166,646 1166,666 1166,686 0,686 0,666 0,646 Z"/><path d="M 1166,646 C 1177,646 1186,655 1186,666 L 1166,666 1166,646 Z"/><path d="M 1186,666 L 1186,1000 1166,1000 1146,1000 1146,666 1166,666 1186,666 Z"/></g><g/></g></g><g><desc>Drawing</desc><g><g style="stroke:none;fill:rgb(0,0,0)"><path d="M 1813,1000 L 1813,666 1833,666 1853,666 1853,1000 1833,1000 1813,1000 Z"/><path d="M 1813,666 C 1813,655 1822,646 1833,646 L 1833,666 1813,666 Z"/><path d="M 1833,646 L 3000,646 3000,666 3000,686 1833,686 1833,666 1833,646 Z"/></g><g/></g></g><g><desc>Drawing</desc><g><g style="stroke:none;fill:rgb(0,0,0)"><path d="M 0,2313 L 1166,2313 1166,2333 1166,2353 0,2353 0,2333 0,2313 Z"/><path d="M 1186,2333 C 1186,2344 1177,2353 1166,2353 L 1166,2333 1186,2333 Z"/><path d="M 1146,2333 L 1146,2000 1166,2000 1186,2000 1186,2333 1166,2333 1146,2333 Z"/></g><g/></g></g><g><desc>Drawing</desc><g><g style="stroke:none;fill:rgb(0,0,0)"><path d="M 1853,2000 L 1853,2333 1833,2333 1813,2333 1813,2000 1833,2000 1853,2000 Z"/><path d="M 1833,2353 C 1822,2353 1813,2344 1813,2333 L 1833,2333 1833,2353 Z"/><path d="M 1833,2313 L 3000,2313 3000,2333 3000,2353 1833,2353 1833,2333 1833,2313 Z"/></g><g/></g></g><g><desc>Drawing</desc><g><text style="font-family:Arial;font-size:300px;font-weight:400;stroke:none;fill:#000000;text-anchor:middle;"><tspan id="label" x="1500" y="550">XXX</tspan></text></g></g></g></svg>