<?xml version="1.0" encoding="UTF-8"?>
<!DOCTYPE svg PUBLIC "-//W3C//DTD SVG 1.1//EN" "http://www.w3.org/Graphics/SVG/1.1/DTD/svg11.dtd"><svg version="1.1" viewBox="0 0 3000 3000" preserveAspectRatio="xMidYMid" fill-rule="evenodd" xmlns="http://www.w3.org/2000/svg" xmlns:xlink="http://www.w3.org/1999/xlink"><g visibility="visible" id="Padrão"><desc>Master slide</desc><g style="stroke:none;fill:none"><rect x="-14" y="-14" width="3030" height="3030"/></g></g><g visibility="visible" id="page1"><desc>Slide</desc><g><desc>Drawing</desc><g><g style="stroke:none;fill:none"><rect x="-14" y="-14" width="3030" height="3030"/></g><g/></g></g><g><desc>Drawing</desc><g><g style="stroke:none;fill:rgb(0,0,0)"><path d="M 3000,2353 L 2666,2353 2666,2333 2666,2313 3000,2313 3000,2333 3000,2353 Z"/><path d="M 2666,2353 C 2655,2353 2646,2344 2646,2333 L 2666,2333 2666,2353 Z"/><path d="M 2646,2333 L 2646,1666 2666,1666 2686,1666 2686,2333 2666,2333 2646,2333 Z"/><path d="M 2666,1646 C 2677,1646 2686,1655 2686,1666 L 2666,1666 2666,1646 Z"/><path d="M 2666,1686 L 2333,1686 2333,1666 2333,1646 2666,1646 2666,1666 2666,1686 Z"/></g><g/></g></g><g><desc>Drawing</desc><g><g style="stroke:none;fill:rgb(0,0,0)"><path d="M 3000,686 L 2666,686 2666,666 2666,646 3000,646 3000,666 3000,686 Z"/><path d="M 2646,666 C 2646,655 2655,646 2666,646 L 2666,666 2646,666 Z"/><path d="M 2686,666 L 2686,1333 2666,1333 2646,1333 2646,666 2666,666 2686,666 Z"/><path d="M 2686,1333 C 2686,1344 2677,1353 2666,1353 L 2666,1333 2686,1333 Z"/><path d="M 2666,1353 L 2333,1353 2333,1333 2333,1313 2666,1313 2666,1333 2666,1353 Z"/></g><g/></g></g><g><desc>Drawing</desc><g><g style="stroke:none;fill:rgb(255,255,255)"><path d="M 500,1499 L 500,1499 C 500,1317 551,1165 612,1165 L 2388,1165 C 2449,1165 2501,1317 2501,1499 2501,1682 2449,1833 2388,1833 L 612,1833 C 551,1833 500,1682 500,1499 Z"/></g><g style="stroke:none;fill:rgb(0,0,0)"><path d="M 525,1499 C 525,1587 537,1668 557,1727 L 533,1735 509,1743 C 488,1680 475,1594 475,1499 L 500,1499 525,1499 Z"/><path d="M 557,1727 C 566,1754 576,1776 588,1791 L 569,1807 549,1822 C 534,1803 521,1776 509,1743 L 533,1735 557,1727 Z"/><path d="M 588,1791 C 593,1797 598,1802 603,1805 L 590,1826 576,1847 C 567,1842 558,1833 549,1822 L 569,1807 588,1791 Z"/><path d="M 603,1805 C 605,1806 606,1807 608,1807 L 601,1831 593,1855 C 588,1853 582,1851 576,1847 L 590,1826 603,1805 Z"/><path d="M 608,1807 C 609,1808 611,1808 612,1808 L 612,1833 612,1858 C 606,1858 599,1857 593,1855 L 601,1831 608,1807 Z"/><path d="M 612,1808 L 2388,1808 2388,1833 2388,1858 612,1858 612,1833 612,1808 Z"/><path d="M 2388,1808 C 2389,1808 2391,1808 2392,1807 L 2399,1831 2407,1855 C 2401,1857 2394,1858 2388,1858 L 2388,1833 2388,1808 Z"/><path d="M 2392,1807 C 2394,1807 2395,1806 2397,1805 L 2410,1826 2424,1847 C 2418,1851 2412,1853 2407,1855 L 2399,1831 2392,1807 Z"/><path d="M 2397,1805 C 2402,1802 2407,1797 2412,1791 L 2431,1807 2451,1822 C 2442,1833 2433,1842 2424,1847 L 2410,1826 2397,1805 Z"/><path d="M 2412,1791 C 2424,1776 2434,1754 2444,1727 L 2467,1735 2491,1743 C 2480,1776 2466,1803 2451,1822 L 2431,1807 2412,1791 Z"/><path d="M 2444,1727 C 2464,1668 2476,1587 2476,1499 L 2501,1499 2526,1499 C 2526,1594 2512,1680 2491,1743 L 2467,1735 2444,1727 Z"/><path d="M 2476,1499 C 2476,1411 2464,1330 2444,1272 L 2467,1264 2491,1256 C 2512,1319 2526,1405 2526,1499 L 2501,1499 2476,1499 Z"/><path d="M 2444,1272 C 2434,1245 2424,1222 2412,1207 L 2431,1192 2451,1176 C 2466,1195 2480,1222 2491,1256 L 2467,1264 2444,1272 Z"/><path d="M 2412,1207 C 2407,1201 2402,1196 2397,1193 L 2410,1172 2424,1151 C 2433,1157 2442,1165 2451,1176 L 2431,1192 2412,1207 Z"/><path d="M 2397,1193 C 2395,1192 2394,1191 2392,1191 L 2399,1167 2407,1143 C 2412,1145 2418,1147 2424,1151 L 2410,1172 2397,1193 Z"/><path d="M 2392,1191 C 2391,1190 2389,1190 2388,1190 L 2388,1165 2388,1140 C 2394,1140 2401,1141 2407,1143 L 2399,1167 2392,1191 Z"/><path d="M 2388,1190 L 612,1190 612,1165 612,1140 2388,1140 2388,1165 2388,1190 Z"/><path d="M 612,1190 C 611,1190 609,1190 608,1191 L 601,1167 593,1143 C 599,1141 606,1140 612,1140 L 612,1165 612,1190 Z"/><path d="M 608,1191 C 606,1191 605,1192 603,1193 L 590,1172 576,1151 C 582,1147 588,1145 593,1143 L 601,1167 608,1191 Z"/><path d="M 603,1193 C 598,1196 593,1201 588,1207 L 569,1192 549,1176 C 558,1165 567,1157 576,1151 L 590,1172 603,1193 Z"/><path d="M 588,1207 C 577,1222 566,1245 557,1272 L 533,1264 509,1256 C 521,1222 534,1195 549,1176 L 569,1192 588,1207 Z"/><path d="M 557,1272 C 537,1330 525,1411 525,1499 L 500,1499 475,1499 C 475,1405 488,1319 509,1256 L 533,1264 557,1272 Z"/></g><g style="stroke:none;fill:rgb(255,255,255)"><path d="M 500,1499 L 500,1499 C 500,1317 551,1165 612,1165 674,1165 725,1317 725,1499 725,1682 674,1833 612,1833 551,1833 500,1682 500,1499 Z"/></g><g style="stroke:none;fill:rgb(0,0,0)"><path d="M 525,1499 C 525,1587 537,1668 557,1727 L 533,1735 509,1743 C 488,1680 475,1594 475,1499 L 500,1499 525,1499 Z"/><path d="M 557,1727 C 566,1754 576,1776 588,1791 L 569,1807 549,1822 C 534,1803 521,1776 509,1743 L 533,1735 557,1727 Z"/><path d="M 588,1791 C 593,1797 598,1802 603,1805 L 590,1826 576,1847 C 567,1842 558,1833 549,1822 L 569,1807 588,1791 Z"/><path d="M 603,1805 C 605,1806 606,1807 608,1807 L 601,1831 593,1855 C 588,1853 582,1851 576,1847 L 590,1826 603,1805 Z"/><path d="M 608,1807 C 609,1808 611,1808 612,1808 L 612,1833 612,1858 C 606,1858 599,1857 593,1855 L 601,1831 608,1807 Z"/><path d="M 612,1808 C 613,1808 615,1808 616,1807 L 623,1831 631,1855 C 625,1857 618,1858 612,1858 L 612,1833 612,1808 Z"/><path d="M 616,1807 C 618,1807 620,1806 622,1805 L 635,1826 648,1847 C 642,1851 636,1853 631,1855 L 623,1831 616,1807 Z"/><path d="M 622,1805 C 627,1802 632,1797 636,1791 L 656,1807 675,1822 C 667,1833 657,1842 648,1847 L 635,1826 622,1805 Z"/><path d="M 636,1791 C 648,1776 659,1754 668,1727 L 692,1735 715,1743 C 704,1776 690,1803 675,1822 L 656,1807 636,1791 Z"/><path d="M 668,1727 C 688,1668 700,1587 700,1499 L 725,1499 750,1499 C 750,1594 737,1680 715,1743 L 692,1735 668,1727 Z"/><path d="M 700,1499 C 700,1411 688,1330 668,1272 L 692,1264 715,1256 C 737,1319 750,1405 750,1499 L 725,1499 700,1499 Z"/><path d="M 668,1272 C 659,1245 648,1222 636,1207 L 656,1192 675,1176 C 690,1195 704,1222 715,1256 L 692,1264 668,1272 Z"/><path d="M 636,1207 C 631,1201 627,1196 622,1193 L 635,1172 648,1151 C 657,1156 667,1165 675,1176 L 656,1192 636,1207 Z"/><path d="M 622,1193 C 620,1192 618,1191 616,1191 L 623,1167 631,1143 C 637,1145 642,1147 648,1151 L 635,1172 622,1193 Z"/><path d="M 616,1191 C 615,1190 613,1190 612,1190 L 612,1165 612,1140 C 618,1140 625,1141 631,1143 L 623,1167 616,1191 Z"/><path d="M 612,1190 C 611,1190 609,1190 608,1191 L 601,1167 593,1143 C 599,1141 606,1140 612,1140 L 612,1165 612,1190 Z"/><path d="M 608,1191 C 606,1191 605,1192 603,1193 L 590,1172 576,1151 C 582,1147 588,1145 593,1143 L 601,1167 608,1191 Z"/><path d="M 603,1193 C 598,1196 593,1201 588,1207 L 569,1192 549,1176 C 558,1165 567,1157 576,1151 L 590,1172 603,1193 Z"/><path d="M 588,1207 C 577,1222 566,1245 557,1272 L 533,1264 509,1256 C 521,1222 534,1195 549,1176 L 569,1192 588,1207 Z"/><path d="M 557,1272 C 537,1330 525,1411 525,1499 L 500,1499 475,1499 C 475,1405 488,1319 509,1256 L 533,1264 557,1272 Z"/></g><g/></g></g><g><desc>Drawing</desc><g><g style="stroke:none;fill:rgb(0,0,0)"><path d="M 0,2313 L 333,2313 333,2333 333,2353 0,2353 0,2333 0,2313 Z"/><path d="M 353,2333 C 353,2344 344,2353 333,2353 L 333,2333 353,2333 Z"/><path d="M 313,2333 L 313,1666 333,1666 353,1666 353,2333 333,2333 313,2333 Z"/><path d="M 313,1666 C 313,1655 322,1646 333,1646 L 333,1666 313,1666 Z"/><path d="M 333,1646 L 593,1646 593,1666 593,1686 333,1686 333,1666 333,1646 Z"/></g><g/></g></g><g><desc>Drawing</desc><g><g style="stroke:none;fill:rgb(0,0,0)"><path d="M 0,646 L 333,646 333,666 333,686 0,686 0,666 0,646 Z"/><path d="M 333,646 C 344,646 353,655 353,666 L 333,666 333,646 Z"/><path d="M 353,666 L 353,1333 333,1333 313,1333 313,666 333,666 353,666 Z"/><path d="M 333,1353 C 322,1353 313,1344 313,1333 L 333,1333 333,1353 Z"/><path d="M 333,1313 L 593,1313 593,1333 593,1353 333,1353 333,1333 333,1313 Z"/></g><g/></g></g><g><desc>Drawing</desc><g><text style="font-family:Arial;font-size:300px;font-weight:400;stroke:none;fill:#000000;text-anchor:middle;"><tspan id="label" x="1500" y="1000">XXX</tspan></text></g></g></g></svg>