<?xml version="1.0" encoding="UTF-8"?>
<!DOCTYPE svg PUBLIC "-//W3C//DTD SVG 1.1//EN" "http://www.w3.org/Graphics/SVG/1.1/DTD/svg11.dtd"><svg version="1.1" viewBox="0 0 3000 3000" preserveAspectRatio="xMidYMid" fill-rule="evenodd" xmlns="http://www.w3.org/2000/svg" xmlns:xlink="http://www.w3.org/1999/xlink"><g visibility="visible" id="Padrão"><desc>Master slide</desc><g style="stroke:none;fill:none"><rect x="-14" y="-14" width="3030" height="3030"/></g></g><g visibility="visible" id="page1"><desc>Slide</desc><g><desc>Drawing</desc><g><g style="stroke:none;fill:none"><rect x="-14" y="-14" width="3030" height="3030"/></g><g/></g></g><g><desc>Drawing</desc><g><g style="stroke:none;fill:rgb(0,0,0)"><path d="M 0,647 L 1000,647 1000,667 1000,687 0,687 0,667 0,647 Z"/></g><g/></g></g><g><desc>Drawing</desc><g><g style="stroke:none;fill:rgb(0,0,0)"><path d="M 0,2313 L 3000,2313 3000,2333 3000,2353 0,2353 0,2333 0,2313 Z"/></g><g/></g></g><g><desc>Drawing</desc><g><g style="stroke:none;fill:rgb(255,255,255)"><path d="M 2000,666 L 2000,833 1000,833 1000,500 2000,500 2000,666 Z"/></g><g style="stroke:none;fill:rgb(0,0,0)"><path d="M 2020,666 L 2020,833 2000,833 1980,833 1980,666 2000,666 2020,666 Z"/><path d="M 2020,833 L 2020,833 C 2020,844 2011,853 2000,853 L 2000,833 2020,833 Z"/><path d="M 2000,853 L 1000,853 1000,833 1000,813 2000,813 2000,833 2000,853 Z"/><path d="M 1000,853 L 1000,853 C 989,853 980,844 980,833 L 1000,833 1000,853 Z"/><path d="M 980,833 L 980,500 1000,500 1020,500 1020,833 1000,833 980,833 Z"/><path d="M 980,500 L 980,500 C 980,489 989,480 1000,480 L 1000,500 980,500 Z"/><path d="M 1000,480 L 2000,480 2000,500 2000,520 1000,520 1000,500 1000,480 Z"/><path d="M 2000,480 L 2000,480 C 2011,480 2020,489 2020,500 L 2000,500 2000,480 Z"/><path d="M 2020,500 L 2020,666 2000,666 1980,666 1980,500 2000,500 2020,500 Z"/></g><g/></g></g><g><desc>Drawing</desc><g><g style="stroke:none;fill:rgb(0,0,0)"><path d="M 2000,647 L 3000,647 3000,667 3000,687 2000,687 2000,667 2000,647 Z"/></g><g/></g></g><g><desc>Drawing</desc><g><text style="font-family:Arial;font-size:300px;font-weight:400;stroke:none;fill:#000000;text-anchor:middle;"><tspan id="label" x="1500" y="1250">XXX</tspan></text></g></g></g></svg>