<?xml version="1.0" encoding="UTF-8"?>
<!DOCTYPE svg PUBLIC "-//W3C//DTD SVG 1.1//EN" "http://www.w3.org/Graphics/SVG/1.1/DTD/svg11.dtd"><svg version="1.1" viewBox="0 0 3000 3000" preserveAspectRatio="xMidYMid" fill-rule="evenodd" xmlns="http://www.w3.org/2000/svg" xmlns:xlink="http://www.w3.org/1999/xlink"><g visibility="visible" id="Padrão"><desc>Master slide</desc><g style="stroke:none;fill:none"><rect x="-14" y="-14" width="3030" height="3030"/></g></g><g visibility="visible" id="page1"><desc>Slide</desc><g><desc>Drawing</desc><g><g style="stroke:none;fill:none"><rect x="-14" y="-14" width="3030" height="3030"/></g><g/></g></g><g><desc>Drawing</desc><g><g style="stroke:none;fill:rgb(0,0,0)"><path d="M 0,647 L 3000,647 3000,667 3000,687 0,687 0,667 0,647 Z"/></g><g/></g></g><g><desc>Drawing</desc><g><g style="stroke:none;fill:rgb(0,0,0)"><path d="M 1480,1000 L 1480,667 1500,667 1520,667 1520,1000 1500,1000 1480,1000 Z"/></g><g/></g></g><g><desc>Drawing</desc><g><g style="stroke:none;fill:rgb(0,0,0)"><path d="M 0,2313 L 3000,2313 3000,2333 3000,2353 0,2353 0,2333 0,2313 Z"/></g><g/></g></g><g><desc>Drawing</desc><g><g style="stroke:none;fill:rgb(255,255,255)"><path d="M 1500,2000 L 1333,2000 1333,1000 1666,1000 1666,2000 1500,2000 Z"/></g><g style="stroke:none;fill:rgb(0,0,0)"><path d="M 1500,2020 L 1333,2020 1333,2000 1333,1980 1500,1980 1500,2000 1500,2020 Z"/><path d="M 1333,2020 C 1322,2020 1313,2011 1313,2000 L 1333,2000 1333,2020 Z"/><path d="M 1313,2000 L 1313,1000 1333,1000 1353,1000 1353,2000 1333,2000 1313,2000 Z"/><path d="M 1313,1000 C 1313,989 1322,980 1333,980 L 1333,1000 1313,1000 Z"/><path d="M 1333,980 L 1666,980 1666,1000 1666,1020 1333,1020 1333,1000 1333,980 Z"/><path d="M 1666,980 C 1677,980 1686,989 1686,1000 L 1666,1000 1666,980 Z"/><path d="M 1686,1000 L 1686,2000 1666,2000 1646,2000 1646,1000 1666,1000 1686,1000 Z"/><path d="M 1686,2000 C 1686,2011 1677,2020 1666,2020 L 1666,2000 1686,2000 Z"/><path d="M 1666,2020 L 1500,2020 1500,2000 1500,1980 1666,1980 1666,2000 1666,2020 Z"/></g><g/></g></g><g><desc>Drawing</desc><g><g style="stroke:none;fill:rgb(0,0,0)"><path d="M 1480,2333 L 1480,2000 1500,2000 1520,2000 1520,2333 1500,2333 1480,2333 Z"/></g><g/></g></g><g><desc>Drawing</desc><g><text style="font-family:Arial;font-size:300px;font-weight:400;stroke:none;fill:#000000;text-anchor:left;"><tspan id="label" x="1800" y="1600">XXX</tspan></text></g></g></g></svg>