<svg xmlns="http://www.w3.org/2000/svg" viewBox="0 0 3000 3000">
  <path fill="none" stroke="currentColor" stroke-linecap="round" stroke-linejoin="round" stroke-width="45" d="M3002.4851 2334.0115H1835.4843v-333c-212.995-48.1035-212.995-279.0731.01-222 206.995 55.4641 206.995 166.4641 0 111-213.005-57.0745-213.005-390.0718-.01-333 207.005 55.4668 207.005 166.4668 0 111-212.995-57.0718-212.995-390.0745.01-333 206.995 55.4641 206.995 166.4668-.01 111-212.995-57.0718-212.995-383.8399.01-333 206.995 55.4641 206.995 171.7216 0 111-213.005-57.0745-213.005-280.07466-.01-223V668.01146l1167.0008-1M1568.4893 2000.0115v-1000M.00427339 2334H1167.005v-333c212.995-48.1035 212.995-279.0731-.01-222-206.995 55.4641-206.995 166.4641 0 111 213.005-57.0745 213.005-390.0718.01-333-207.005 55.4668-207.005 166.4668 0 111 212.995-57.0718 212.995-390.0745-.01-333-206.995 55.4641-206.995 166.4668.01 111 212.995-57.0718 212.995-383.8399-.01-333-206.995 55.4641-206.995 171.7216 0 111 213.005-57.0745 213.005-280.07462.01-223V668L.00427339 667M1434 2000V1000"/>
</svg>
